<svg width="320" height="201" viewBox="0 0 320 201" fill="none" xmlns="http://www.w3.org/2000/svg">
<path d="M271.13 137.099L275.99 135.65C283.056 134.602 289.276 137.612 291.06 144.121L298.842 177.025L298.907 177.297H288.314H269.817L262.971 154.175C261.165 147.643 264.71 138.927 271.13 137.099Z" fill="#FEF97A"/>
<path d="M289.923 156.427L277.595 153.685C277.194 153.596 276.949 153.195 277.038 152.793L277.417 151.121C277.506 150.72 277.907 150.475 278.308 150.564L290.636 153.306C291.038 153.395 291.283 153.796 291.194 154.198L290.815 155.87C290.726 156.249 290.324 156.516 289.923 156.427Z" fill="#FEF97A"/>
<path d="M267.318 139.425C267.318 139.425 266.895 141.119 269.146 140.651C271.398 140.183 272.044 139.96 272.044 139.96L271.465 138.421L267.318 139.425Z" fill="#C9A285"/>
<path d="M292.732 174.201C294.471 170.857 296.307 162.73 298.239 149.819L286.135 150.641C284.841 155.499 284.194 157.928 284.194 157.928L279.646 136.326C278.532 134.32 276.258 135.479 273.85 137.619C273.717 137.753 270.885 136.281 270.841 136.326C272.49 145.823 271.777 155.877 273.427 165.373C274.43 170.711 276.263 174.871 278.926 177.852C279.776 178.804 280.889 179.483 282.125 179.803C286.645 180.975 290.181 179.108 292.732 174.201Z" fill="#FFCDA8"/>
<path d="M284.283 157.95L286.49 165.396" stroke="#C9A285" stroke-width="0.668781" stroke-linecap="round" stroke-linejoin="round"/>
<path d="M279.178 138.912C279.089 138.957 278.955 139.001 278.843 138.979L273.025 139.135L268.945 139.224C267.563 139.782 264.665 140.718 264.353 138.734C264.353 138.734 268.187 137.151 270.885 135.992L271.085 135.813C271.264 135.657 271.42 135.568 271.643 135.501C271.687 135.479 271.732 135.479 271.776 135.479L272.847 135.323L275.165 134.989L276.681 134.766L277.796 134.61C278.821 134.454 279.735 135.278 279.713 136.304L279.69 137.664C279.846 138.154 279.624 138.734 279.178 138.912Z" fill="#FFCDA8"/>
<path d="M299.057 146.366C298.816 151.461 297.85 153.257 292.961 152.967C290.442 152.822 285.738 154.145 284.201 152.302C283.497 151.453 279.046 135.843 283.936 136.133C288.862 136.403 299.298 141.251 299.057 146.366Z" fill="#FEF97A"/>
<path d="M273.627 138.33C273.627 138.33 274.339 139.925 272.04 139.855C269.741 139.785 269.066 139.677 269.066 139.677L269.37 138.062L273.627 138.33Z" fill="#C9A285"/>
<path d="M257.477 176.227C254.988 174.455 255.457 166.777 258.884 153.194C259.602 149.705 260.458 149.457 261.454 152.451C262.948 156.941 261.051 158.244 261.051 158.244L262.816 136.448C263.565 134.279 264.968 134.759 267.711 136.448C267.866 136.557 270.398 134.616 270.45 134.652C270.475 144.291 272.923 154.068 272.947 163.707C272.901 167.845 272.695 171.224 272.331 173.844C271.994 176.269 270.169 178.221 267.772 178.72C264.267 179.45 260.835 178.619 257.477 176.227Z" fill="#FFCDA8"/>
<path d="M260.967 158.281L260.086 165.997" stroke="#482D1F" stroke-width="0.668781" stroke-linecap="round" stroke-linejoin="round"/>
<path d="M263.08 139.903C263.176 139.931 263.315 139.952 263.421 139.91L269.178 139.054L273.211 138.433C274.669 138.742 277.686 139.161 277.649 137.153C277.649 137.153 273.598 136.26 270.74 135.587L270.511 135.446C270.309 135.323 270.14 135.262 269.908 135.235C269.861 135.221 269.817 135.229 269.773 135.237L268.692 135.269L266.351 135.342L264.819 135.386L263.694 135.425C262.657 135.45 261.9 136.421 262.1 137.427L262.358 138.762C262.29 139.272 262.61 139.804 263.08 139.903Z" fill="#FFCDA8"/>
<path d="M269.595 136.367C267.296 136.297 266.236 135.181 266.436 135.288L272.862 135.288C272.216 136.054 271.127 136.413 269.595 136.367Z" fill="#C9A285"/>
<path d="M261.435 153.732C260.086 153.732 257.724 153.229 256.909 152.496C256.048 151.725 256.951 140.621 262.589 139.22L261.435 153.732Z" fill="#FEF97A"/>
<path d="M285.182 124.693C287.739 127.294 290.177 131.201 289.141 133.001C288.4 134.302 286.836 134.714 285.207 135.108C283.676 135.483 280.682 135.973 276.776 134.788C275.664 134.375 274.514 133.928 273.408 133.493" fill="#482D1F"/>
<path d="M264.813 123.966C262.586 125.216 260.149 127.332 260.482 128.76C260.719 129.77 261.694 130.354 262.69 130.944C263.627 131.495 265.541 132.447 268.402 132.452C269.246 132.401 270.075 132.323 270.925 132.251" fill="#482D1F"/>
<path d="M279.545 130.314C278.933 130.704 278.303 130.812 277.881 130.838C277.621 130.86 277.397 131.008 277.296 131.212L276.258 134.998C276.258 134.998 275.551 134.968 275.405 134.998C275.008 135.099 274.047 135.326 271.956 135.551C269.951 135.798 270.076 135.762 269.936 135.771C268.481 135.773 267.324 135.44 267.114 135.361C265.34 134.747 264.113 130.887 264.44 125.874C264.458 125.464 264.54 125.07 264.601 124.671L265.462 120.771C265.65 119.898 266.053 119.083 266.664 118.439C266.922 118.162 267.175 117.906 267.433 117.722C270.447 115.344 274.452 116.763 275.161 117.046C275.247 117.069 275.327 117.113 275.413 117.137C276.18 117.55 276.894 117.81 277.675 117.997C278.02 118.089 278.225 118.444 278.154 118.794L276.785 124.335C276.668 124.858 277.196 125.299 277.691 125.086C277.691 125.086 277.713 125.092 277.719 125.07C277.795 125.045 278.334 124.843 278.926 124.955C279.983 125.146 280.841 126.253 280.945 127.412C281.07 128.669 280.414 129.739 279.545 130.314Z" fill="#FFCDA8"/>
<path fill-rule="evenodd" clip-rule="evenodd" d="M266.987 124.689C266.987 124.689 265.814 128.032 265.771 128.204C265.728 128.376 266.858 127.967 266.858 127.967L266.987 124.689Z" fill="#E74B73"/>
<path fill-rule="evenodd" clip-rule="evenodd" d="M264.351 123.397C264.351 123.397 265.561 123.435 266.024 124.401C266.024 124.401 265.643 122.982 264.351 123.397Z" fill="#2D3238"/>
<path fill-rule="evenodd" clip-rule="evenodd" d="M270.979 124.807C270.979 124.807 270.621 123.913 269.891 124.054C269.159 124.195 269.008 124.706 269.008 124.706C269.008 124.706 270.014 123.641 270.979 124.807Z" fill="#2D3238"/>
<path d="M266.815 130.539C266.977 130.536 267.378 130.505 267.506 130.286C267.517 130.243 267.556 130.184 267.546 130.135C267.495 129.983 267.197 129.972 266.798 129.911C266.092 129.791 265.549 129.577 265.549 129.577C265.549 129.577 265.606 130.054 265.685 130.19C265.808 130.592 266.561 130.54 266.815 130.539Z" fill="#2D3238"/>
<path d="M285.398 121.82C284.97 120.921 284.363 120.343 284.102 120.111C282.663 118.849 281.277 118.939 278.022 117.997C277.354 117.818 276.354 117.504 275.161 117.046C275.069 117.044 274.989 117 274.902 116.977C274.193 116.694 270.311 115.423 267.449 117.749C267.437 117.792 266.979 118.038 267.01 118.093C267.01 118.093 267.015 118.163 267.056 118.267C267.046 118.218 267.042 118.148 267.032 118.099C267.416 118.387 267.852 118.826 268.405 119.09C269.961 119.83 271.43 119.947 272.339 119.913C272.459 120.499 272.647 121.173 272.949 121.854C273.813 123.885 275.181 125.152 276.09 125.811C275.83 126.434 275.571 127.057 275.318 127.658C275.425 127.687 275.511 127.71 275.625 127.717C275.625 127.717 277.367 127.676 277.742 128.516C277.825 128.722 277.816 128.928 277.782 129.057C277.498 130.804 275.8 132.749 276.147 133.35C276.498 134.021 279.448 133.519 281.843 131.899C282.495 131.451 284.251 130.236 285.259 127.852C285.521 127.046 286.632 124.366 285.398 121.82Z" fill="#482D1F"/>
<path fill-rule="evenodd" clip-rule="evenodd" d="M265.57 124.823C265.699 125.027 265.638 125.295 265.434 125.423C265.231 125.552 264.961 125.491 264.833 125.288C264.704 125.084 264.766 124.815 264.97 124.687C265.173 124.558 265.442 124.619 265.57 124.823Z" fill="#2D3238"/>
<path fill-rule="evenodd" clip-rule="evenodd" d="M269.938 125.521C270.097 125.774 270.021 126.106 269.768 126.265C269.516 126.424 269.185 126.349 269.025 126.096C268.866 125.843 268.94 125.511 269.193 125.352C269.445 125.193 269.778 125.268 269.938 125.521Z" fill="#2D3238"/>
<path d="M274.477 128.125L276.066 125.897C276.066 125.897 276.552 125.289 277.407 124.941C277.483 124.915 278.022 124.713 278.615 124.826C279.672 125.017 280.529 126.124 280.634 127.283C280.77 128.496 280.12 129.545 279.272 130.126C278.424 130.706 277.511 130.669 277.214 130.659L276.1 130.337" fill="#FFCDA8"/>
<path d="M279.178 133.493L278.99 135.312L276.302 135.007C275.919 134.974 275.671 134.607 275.726 134.23L275.869 133.437L276.494 131.966L279.178 133.493Z" fill="#482D1F"/>
<path d="M100.571 124.617C100.588 125.719 100.602 126.857 100.602 128.008C100.602 128.008 101.092 132.935 98.863 134.997C98.6178 135.236 98.328 135.409 98.0828 135.561C97.57 135.865 97.1242 135.996 97.1242 135.996C97.1242 135.996 97.1019 136.017 97.0796 136.017C93.5128 136.972 90.5924 136.69 89.0542 136.734C84.1053 136.842 80.0926 136.82 76.6149 136.712C74.4971 136.647 65.5131 137.233 64.3762 135.583C64.3539 135.54 64.3316 135.496 64.3093 135.453C64.1087 134.997 63.9527 134.433 63.8412 133.76C63.8189 133.695 63.7966 133.608 63.7966 133.543C63.4282 131.352 63.3933 128.17 63.7674 124.358L53.0622 123.479C52.3614 123.422 51.8248 122.832 51.8341 122.128C51.8818 118.518 52.0774 116.045 52.4208 114.709C54.0085 108.532 57.0426 105.86 57.3106 104.903C58.834 99.3783 60.3483 97.4177 60.9606 96.8264C61.664 96.1252 62.3413 95.6465 62.7925 95.3422C65.8377 93.3218 69.0305 93.0654 70.6584 93.0492C70.7034 93.0277 70.748 93.0285 70.7926 93.0293L78.7072 93.0559C79.3513 93.0398 79.4822 93.0147 79.3553 93.1608C80.323 93.0279 81.4295 92.8945 82.6339 92.7798C84.4258 92.8069 86.0518 92.9044 87.512 93.0724L94.1681 93.1661C94.2127 93.1661 94.2573 93.1661 94.3018 93.1884C95.9292 93.233 99.1171 93.5451 102.127 95.6183C102.572 95.9304 103.241 96.4208 103.932 97.1342C104.534 97.7361 106.014 99.7229 107.441 105.274C107.692 106.235 110.679 108.959 112.159 115.163C112.479 116.505 112.631 118.981 112.616 122.592C112.613 123.295 112.066 123.876 111.364 123.921L100.571 124.617H100.571Z" fill="#B2EEFC"/>
<path d="M62.3476 135.407L62.7711 135.184L70.1723 131.238C70.1723 131.238 88.1179 127.051 98.4395 125.134C100.223 123.863 110.834 124.149 111.124 123.859C111.86 130.948 112.795 138.026 103.838 138.026L58.8922 137.257L62.3476 135.407Z" fill="#FFCDA8"/>
<path d="M69.4135 117.506C69.8594 116.057 71.9995 109.391 72.5122 108.009" stroke="#482D1F" stroke-width="0.668781" stroke-linecap="round" stroke-linejoin="round"/>
<path d="M95.5257 108.009L98.5977 124.454" stroke="#482D1F" stroke-width="0.668781" stroke-linecap="round" stroke-linejoin="round"/>
<path d="M80.7311 85.0182L85.9332 87.076L85.9777 88.1683V88.1906L85.844 94.2542C85.844 94.4326 85.7102 94.6109 85.5319 94.6555C84.6402 94.923 83.0574 95.2351 81.2071 94.8116C80.1816 94.5886 79.3568 94.1874 78.7772 93.8307C78.6434 93.7638 78.5766 93.6078 78.5766 93.4517L78.8141 86.4784C78.177 85.8321 77.2804 84.8732 76.7486 84.0888C76.3027 83.4423 74.8314 81.8818 74.4301 79.3404C74.3187 78.4933 73.8951 75.6398 75.6562 73.4329C76.2804 72.6526 76.9938 72.2513 77.3059 72.0953C78.9778 71.2036 80.2931 71.6049 83.6147 71.4711C83.8822 71.4488 84.3281 71.4488 84.8854 71.4042C85.9109 71.3373 86.6242 71.2482 86.8249 71.2259C88.4745 71.0475 92.0637 71.3596 93.7802 73.745C93.8694 73.901 93.9808 74.0571 94.0923 74.1908C93.6464 74.3914 93.1337 74.7035 92.5541 74.8373C90.9044 75.194 89.4777 74.9488 88.586 74.7035C87.0032 76.3978 85.4204 78.092 83.8376 79.764C82.9935 80.9458 81.6804 83.2774 80.7311 85.0182Z" fill="#FFCDA8"/>
<path d="M86.2896 89.6173L82.7896 88.9708L85.8214 92.6714L86.2896 89.6173Z" fill="#C9A285"/>
<path d="M95.0287 77.2899L94.9396 81.2803C94.9173 81.6816 94.895 82.0829 94.8058 82.4841C94.3154 85.3153 93.4014 87.6783 92.3759 89.1942C91.618 90.3312 90.7708 90.9999 89.9683 91.0668C89.7454 91.1114 88.5416 91.156 87.1371 90.7993C87.0034 90.7547 87.1148 90.8216 85.22 90.1082C84.4843 89.8407 83.9047 89.6178 83.4588 89.4172C82.6563 89.0828 82.2327 88.8598 82.0098 88.7261C81.8538 88.6592 81.8092 88.6146 81.8092 88.6146C80.7614 86.6083 79.8697 84.7803 79.1118 83.1752C78.6659 82.2166 78.1978 81.258 78.443 80.0765C78.5321 79.6084 78.7774 78.4491 79.8028 77.8472C80.806 77.2676 81.9206 77.5574 82.2327 77.6466C82.6563 77.7581 82.9907 77.9364 83.1913 78.0702L83.169 72.3632C83.169 72.0066 83.4588 71.6945 83.8155 71.6945C84.5958 71.6722 85.376 71.6053 86.2008 71.3824C86.29 71.3601 86.3792 71.3601 86.4684 71.3378C87.2263 71.2263 91.4619 70.7805 93.8249 73.8123C94.0479 74.0575 94.2262 74.3473 94.4046 74.704C94.8281 75.5288 95.051 76.3982 95.0287 77.2899Z" fill="#FFCDA8"/>
<path fill-rule="evenodd" clip-rule="evenodd" d="M91.1278 79.2846C91.1278 79.2846 93.1247 84.3856 93.2008 84.648C93.2764 84.9086 91.4909 84.2367 91.4909 84.2367L91.1278 79.2846Z" fill="#E74B73"/>
<path fill-rule="evenodd" clip-rule="evenodd" d="M94.561 79.1417C94.561 79.1417 93.4051 78.7796 92.6499 79.54C92.6499 79.54 93.4774 78.3249 94.561 79.1417Z" fill="#2D3238"/>
<path fill-rule="evenodd" clip-rule="evenodd" d="M87.8335 79.8307C87.8335 79.8307 88.9895 79.4685 89.7447 80.2289C89.7447 80.2289 88.9172 79.0139 87.8335 79.8307Z" fill="#2D3238"/>
<path fill-rule="evenodd" clip-rule="evenodd" d="M93.2259 80.2607C93.0974 80.4645 93.1581 80.7327 93.3617 80.8611C93.5653 80.9895 93.8346 80.9292 93.963 80.7255C94.0915 80.5217 94.0298 80.2528 93.8261 80.1244C93.6225 79.996 93.3544 80.0569 93.2259 80.2607Z" fill="#2D3238"/>
<path fill-rule="evenodd" clip-rule="evenodd" d="M88.8582 80.9588C88.6989 81.2114 88.775 81.5435 89.0275 81.7027C89.2799 81.8618 89.6112 81.7866 89.7705 81.5339C89.9298 81.2812 89.8555 80.9488 89.6031 80.7896C89.3506 80.6304 89.0175 80.7061 88.8582 80.9588Z" fill="#2D3238"/>
<path d="M94.0923 74.1909C93.6464 74.3915 93.1337 74.7036 92.5318 74.8374C90.8598 75.194 89.3885 74.9488 88.4968 74.7036C86.8917 76.3978 84.7071 78.6494 83.0797 80.3437C80.0479 80.4774 77.5957 80.0316 74.5639 80.1653C74.5639 80.1653 74.2741 79.8532 74.118 79.3851C73.8951 78.7163 73.4269 75.8405 75.3664 73.4775C75.9906 72.6973 76.7263 72.296 77.0384 72.1399C78.7326 71.2482 80.0702 71.6495 83.4587 71.5157C83.7262 71.4935 84.172 71.4935 84.7516 71.4489C85.7994 71.382 86.5128 71.2928 86.7357 71.2705C88.4076 71.0922 92.0636 71.4043 93.8025 73.7896C93.8694 73.9011 93.9808 74.0571 94.0923 74.1909Z" fill="#482D1F"/>
<path d="M83.6597 82.5729L83.3699 79.7195C83.3699 79.7195 83.2361 78.9169 82.6342 78.159C82.5896 78.1144 82.1883 77.6463 81.5864 77.4456C80.5164 77.0889 79.1788 77.6463 78.4655 78.6494C77.7298 79.6749 77.7967 80.9902 78.2871 81.971C78.7776 82.9519 79.6247 83.3532 79.9145 83.4869L81.096 83.7322L83.6597 82.5729Z" fill="#FFCDA8"/>
<path d="M90.8625 86.8308C90.7064 86.7862 90.3275 86.6747 90.2606 86.4295C90.2606 86.3849 90.2383 86.318 90.2606 86.2734C90.3498 86.1174 90.6173 86.2066 91.0185 86.2289C91.7319 86.2734 92.3115 86.2066 92.3115 86.2066C92.3115 86.2066 92.1555 86.6524 92.044 86.7862C91.7988 87.1206 91.0854 86.8976 90.8625 86.8308Z" fill="#2D3238"/>
<path d="M77.7741 79.8307C77.6626 80.544 77.7964 81.302 78.1085 81.9039C78.5989 82.8848 79.446 83.286 79.7358 83.4198" stroke="#C9A285" stroke-width="0.445854" stroke-linecap="round" stroke-linejoin="round"/>
<path d="M75.3977 112.345C77.322 104.402 78.6169 99.6936 79.2826 98.2208C79.9403 96.7657 80.0354 97.8302 80.497 98.435C80.7362 98.7484 80.6394 97.9748 81.0113 98.0404C81.7378 98.1685 82.1656 98.6596 82.2947 99.5137C82.9383 99.8868 83.2094 100.361 83.1081 100.935C83.0346 101.352 83.6162 102.214 82.3909 107.335C81.9556 109.153 83.1109 111.641 82.6636 113.589L82.6821 113.592C81.5791 117.737 77.9665 124.105 71.8443 132.695C62.6609 145.581 54.8572 138.831 52.7613 137.382C51.3641 136.416 51.3641 131.76 52.7613 123.413L62.9065 124.26L75.3977 112.345Z" fill="#FFCDA8"/>
<path d="M62.749 124.26L60.5532 125.561" stroke="#482D1F" stroke-width="0.668781" stroke-linecap="round" stroke-linejoin="round"/>
<path d="M73.6943 130.037L68.1211 136.947" stroke="#C9A285" stroke-width="0.668781" stroke-linecap="round" stroke-linejoin="round"/>
<path d="M220.316 88.795H140.063C137.6 88.795 135.604 90.7912 135.604 93.2536V150.769C135.604 153.231 137.6 155.227 140.063 155.227H220.316C222.779 155.227 224.775 153.231 224.775 150.769V93.2536C224.775 90.7912 222.779 88.795 220.316 88.795Z" fill="#F2F6FB"/>
<path d="M149.771 115.518C145.328 115.518 141.726 111.913 141.726 107.465C141.726 103.018 145.328 99.4129 149.771 99.4129C154.215 99.4129 157.817 103.018 157.817 107.465C157.817 111.913 154.215 115.518 149.771 115.518ZM149.767 107.356C150.863 107.356 151.751 106.48 151.751 105.398C151.751 104.316 150.863 103.439 149.767 103.439C148.671 103.439 147.783 104.316 147.783 105.398C147.783 106.48 148.671 107.356 149.767 107.356ZM149.767 108.336C147.781 108.336 146.171 109.925 146.171 111.886H153.363C153.363 109.925 151.753 108.336 149.767 108.336ZM149.771 145.312C145.328 145.312 141.726 141.706 141.726 137.259C141.726 132.812 145.328 129.207 149.771 129.207C154.215 129.207 157.817 132.812 157.817 137.259C157.817 141.706 154.215 145.312 149.771 145.312ZM149.767 137.15C150.863 137.15 151.751 136.273 151.751 135.192C151.751 134.11 150.863 133.233 149.767 133.233C148.671 133.233 147.783 134.11 147.783 135.192C147.783 136.273 148.671 137.15 149.767 137.15ZM149.767 138.13C147.781 138.13 146.171 139.719 146.171 141.68H153.363C153.363 139.719 151.753 138.13 149.767 138.13ZM162.286 135.649H204.84C205.087 135.649 205.286 135.848 205.286 136.095V138.424C205.286 138.67 205.087 138.87 204.84 138.87H162.286C162.039 138.87 161.84 138.67 161.84 138.424V136.095C161.84 135.848 162.039 135.649 162.286 135.649ZM162.286 140.883H200.817C201.064 140.883 201.263 141.082 201.263 141.329V143.658C201.263 143.904 201.064 144.104 200.817 144.104H162.286C162.039 144.104 161.84 143.904 161.84 143.658V141.329C161.84 141.082 162.039 140.883 162.286 140.883Z" fill="#D8DEED"/>
<path d="M205.978 99.4129H162.731C162.238 99.4129 161.839 99.8121 161.839 100.305V122.678C161.839 123.171 162.238 123.57 162.731 123.57H205.978C206.471 123.57 206.87 123.171 206.87 122.678V100.305C206.87 99.8121 206.471 99.4129 205.978 99.4129Z" fill="#73E2FD"/>
<path fill-rule="evenodd" clip-rule="evenodd" d="M184.717 115.497L184.294 115.503L184.297 115.497H178.763C178.516 115.497 178.421 115.329 178.551 115.12L182.396 108.941C182.526 108.732 182.742 108.731 182.877 108.936L185.695 113.247L186.709 111.615C186.839 111.406 187.056 111.399 187.197 111.604L189.546 115.019C189.686 115.222 189.602 115.394 189.354 115.401L187.396 115.462L187.073 115.466L187.092 115.497C187.092 115.497 186.892 115.497 186.645 115.497H184.717ZM187.037 109.762C186.518 109.762 186.098 109.338 186.098 108.815C186.098 108.292 186.518 107.868 187.037 107.868C187.555 107.868 187.975 108.292 187.975 108.815C187.975 109.338 187.555 109.762 187.037 109.762Z" fill="white"/>
<path d="M209.667 130.414H162.285C162.038 130.414 161.839 130.614 161.839 130.86V133.19C161.839 133.436 162.038 133.635 162.285 133.635H209.667C209.913 133.635 210.113 133.436 210.113 133.19V130.86C210.113 130.614 209.913 130.414 209.667 130.414Z" fill="#E1E5F0"/>
<g clip-path="url(#clip0)">
<path d="M236.144 52.458H152.992C150.53 52.458 148.534 54.4542 148.534 56.9166V75.8654C148.534 78.3278 150.53 80.3239 152.992 80.3239H236.144C238.606 80.3239 240.603 78.3278 240.603 75.8654V56.9166C240.603 54.4542 238.606 52.458 236.144 52.458Z" fill="#D8DEED"/>
<path d="M226.659 74.5818C222.215 74.5818 218.613 70.9766 218.613 66.5294C218.613 62.0822 222.215 58.477 226.659 58.477C231.102 58.477 234.704 62.0822 234.704 66.5294C234.704 70.9766 231.102 74.5818 226.659 74.5818ZM226.655 66.4206C227.75 66.4206 228.638 65.5437 228.638 64.4619C228.638 63.3802 227.75 62.5032 226.655 62.5032C225.559 62.5032 224.671 63.3802 224.671 64.4619C224.671 65.5437 225.559 66.4206 226.655 66.4206ZM226.655 67.3999C224.669 67.3999 223.059 68.9894 223.059 70.9501H230.25C230.25 68.9894 228.64 67.3999 226.655 67.3999ZM157.107 65.7242H203.685C203.931 65.7242 204.131 65.9238 204.131 66.17V68.4993C204.131 68.7455 203.931 68.9451 203.685 68.9451H157.107C156.861 68.9451 156.662 68.7455 156.662 68.4993V66.17C156.662 65.9238 156.861 65.7242 157.107 65.7242ZM157.107 70.9582H207.708C207.954 70.9582 208.154 71.1578 208.154 71.4041V73.7333C208.154 73.9796 207.954 74.1792 207.708 74.1792H157.107C156.861 74.1792 156.662 73.9796 156.662 73.7333V71.4041C156.662 71.1578 156.861 70.9582 157.107 70.9582Z" fill="#F2F6FB"/>
<path d="M208.512 60.4906H157.107C156.861 60.4906 156.662 60.6902 156.662 60.9365V63.2657C156.662 63.512 156.861 63.7116 157.107 63.7116H208.512C208.759 63.7116 208.958 63.512 208.958 63.2657V60.9365C208.958 60.6902 208.759 60.4906 208.512 60.4906Z" fill="#E1E5F0"/>
<path d="M209.393 28.1589H126.241C123.778 28.1589 121.782 30.155 121.782 32.6174V51.5662C121.782 54.0286 123.778 56.0248 126.241 56.0248H209.393C211.855 56.0248 213.851 54.0286 213.851 51.5662V32.6174C213.851 30.155 211.855 28.1589 209.393 28.1589Z" fill="#F2F6FB"/>
<path d="M137.956 50.1506C133.512 50.1506 129.91 46.5454 129.91 42.0982C129.91 37.6509 133.512 34.0458 137.956 34.0458C142.399 34.0458 146.001 37.6509 146.001 42.0982C146.001 46.5454 142.399 50.1506 137.956 50.1506ZM137.952 41.9893C139.047 41.9893 139.936 41.1124 139.936 40.0306C139.936 38.9489 139.047 38.072 137.952 38.072C136.856 38.072 135.968 38.9489 135.968 40.0306C135.968 41.1124 136.856 41.9893 137.952 41.9893ZM137.952 42.9687C135.966 42.9687 134.356 44.5581 134.356 46.5188H141.547C141.547 44.5581 139.938 42.9687 137.952 42.9687ZM150.47 40.4877H197.048C197.294 40.4877 197.494 40.6873 197.494 40.9335V43.2628C197.494 43.509 197.294 43.7086 197.048 43.7086H150.47C150.224 43.7086 150.024 43.509 150.024 43.2628V40.9335C150.024 40.6873 150.224 40.4877 150.47 40.4877ZM150.47 45.7217H205.093C205.34 45.7217 205.539 45.9213 205.539 46.1676V48.4968C205.539 48.7431 205.34 48.9427 205.093 48.9427H150.47C150.224 48.9427 150.024 48.7431 150.024 48.4968V46.1676C150.024 45.9213 150.224 45.7217 150.47 45.7217Z" fill="#D8DEED"/>
<path d="M185.784 35.2535H150.47C150.224 35.2535 150.024 35.4531 150.024 35.6993V38.0286C150.024 38.2748 150.224 38.4744 150.47 38.4744H185.784C186.03 38.4744 186.23 38.2748 186.23 38.0286V35.6993C186.23 35.4531 186.03 35.2535 185.784 35.2535Z" fill="#E1E5F0"/>
</g>
<g clip-path="url(#clip1)">
<path d="M199.584 166.597H104.394C101.932 166.597 99.9355 168.593 99.9355 171.055V183.762C99.9355 186.225 101.932 188.221 104.394 188.221H199.584C202.046 188.221 204.042 186.225 204.042 183.762V171.055C204.042 168.593 202.046 166.597 199.584 166.597Z" fill="#D8DEED"/>
<path d="M180.412 174.399H193.788C194.5 174.399 195.134 174.558 195.662 174.849C196.19 175.14 196.614 175.563 196.905 176.091C197.196 176.62 197.355 177.253 197.355 177.966C197.355 178.678 197.196 179.312 196.905 179.84C196.614 180.368 196.19 180.792 195.662 181.083C195.134 181.374 194.5 181.533 193.788 181.533H180.412C179.7 181.533 179.066 181.374 178.538 181.083C178.009 180.792 177.586 180.368 177.295 179.84C177.004 179.312 176.845 178.678 176.845 177.966C176.845 177.253 177.004 176.62 177.295 176.091C177.586 175.563 178.009 175.14 178.538 174.849C179.066 174.558 179.7 174.399 180.412 174.399Z" fill="#474BFF"/>
<path d="M168.597 174.399H109.298C108.806 174.399 108.407 174.798 108.407 175.291V180.641C108.407 181.133 108.806 181.533 109.298 181.533H168.597C169.09 181.533 169.489 181.133 169.489 180.641V175.291C169.489 174.798 169.09 174.399 168.597 174.399Z" fill="white"/>
</g>
<path d="M262.649 174.399H277.585C279.062 174.399 280.26 175.597 280.26 177.074V181.533H242.362H230.77V152.329H259.973C261.451 152.329 262.649 153.527 262.649 155.004V174.399Z" fill="#B2EEFC"/>
<path d="M42.5466 140.384L45.1901 129.718H25.3462C23.2845 129.718 21.5799 128.151 21.5799 126.255V96.0446C21.5528 94.1204 23.2296 92.5536 25.3187 92.5536H85.7112C87.7729 92.5536 89.4772 94.1204 89.4772 96.0172V126.255C89.4772 128.151 87.7729 129.718 85.7112 129.718H61.5279L60.4367 140.384H67.5965C68.6961 140.384 69.5482 141.264 69.5482 142.336C69.5482 143.436 68.6686 144.288 67.5965 144.288H36.9467C35.8472 144.288 34.995 143.408 34.995 142.336C34.9401 141.264 35.8472 140.384 36.9467 140.384H42.5466Z" fill="#73E2FD"/>
<path d="M165.818 74.1537L161.161 70.0097C160.065 68.9047 158.147 69.1809 157.325 70.286L144.175 86.0331L136.504 79.4027C135.408 78.5739 133.49 78.5739 132.668 79.679L128.559 84.6518C127.463 85.7568 127.737 87.6907 128.833 88.5195L143.079 100.675C143.627 101.228 144.449 101.504 145.271 101.228C146.093 101.228 146.914 100.951 147.188 100.123L165.818 78.0214C167.188 76.9163 166.914 74.9825 165.818 74.1537Z" fill="url(#paint0_linear)"/>
<path d="M173.703 74.1271L169.046 69.9831C167.95 68.8781 166.032 69.1543 165.21 70.2594L152.06 86.0065L144.389 79.3761C143.293 78.5473 141.376 78.5473 140.554 79.9287L136.444 84.6252C135.622 85.7302 135.622 87.6641 136.718 88.4929L150.964 100.649C151.512 101.201 152.334 101.477 153.156 101.201C153.978 101.201 154.8 100.925 155.074 100.096L173.703 77.9948C175.073 76.8897 174.799 75.2321 173.703 74.1271Z" fill="url(#paint1_linear)"/>
<defs>
<linearGradient id="paint0_linear" x1="147.303" y1="69.3062" x2="147.303" y2="101.336" gradientUnits="userSpaceOnUse">
<stop stop-color="#1792C7"/>
<stop offset="1" stop-color="#00B8F0"/>
</linearGradient>
<linearGradient id="paint1_linear" x1="155.245" y1="69.2796" x2="155.245" y2="101.309" gradientUnits="userSpaceOnUse">
<stop stop-color="#00B8F0"/>
<stop offset="0.0001" stop-color="#00B8F0"/>
<stop offset="0.739583" stop-color="#B2EEFC"/>
</linearGradient>
<clipPath id="clip0">
<rect width="118.82" height="67.9927" fill="white" transform="translate(121.782 12.331)"/>
</clipPath>
<clipPath id="clip1">
<rect width="118.82" height="67.9927" fill="white" transform="translate(91.2417 120.228)"/>
</clipPath>
</defs>
</svg>
