<svg width="148" height="91" viewBox="0 0 148 91" fill="none" xmlns="http://www.w3.org/2000/svg">
<rect x="49.9971" y="18.5942" width="29.0505" height="13.8665" rx="1.95649" transform="rotate(-17.133 49.9971 18.5942)" fill="url(#paint0_linear)"/>
<ellipse cx="65.5314" cy="20.9398" rx="4.71772" ry="4.55521" transform="rotate(-17.133 65.5314 20.9398)" fill="white"/>
<rect x="17.1797" y="18.5436" width="61.0066" height="29.1199" rx="1.95649" transform="rotate(36.0364 17.1797 18.5436)" fill="url(#paint1_linear)"/>
<ellipse cx="32.7935" cy="47.6081" rx="9.90731" ry="9.56604" transform="rotate(36.0364 32.7935 47.6081)" fill="white"/>
<rect x="69.1123" y="69.0209" width="47.6904" height="22.7637" rx="1.95649" transform="rotate(-19.3406 69.1123 69.0209)" fill="url(#paint2_linear)"/>
<ellipse cx="94.7438" cy="71.8859" rx="7.74478" ry="7.478" transform="rotate(-19.3406 94.7438 71.8859)" fill="white"/>
<path d="M127.798 8.43478L121.915 3.07127C120.53 1.64101 118.108 1.99857 117.07 3.42884L100.457 23.8102L90.7669 15.2285C89.3826 14.1558 86.96 14.1558 85.9217 15.5861L80.7304 22.0223C79.346 23.4526 79.6921 25.9556 81.0765 27.0283L99.073 42.7612C99.7652 43.4763 100.803 43.8339 101.842 43.4763C102.88 43.4763 103.918 43.1188 104.264 42.0461L127.798 13.4407C129.529 12.0104 129.183 9.50748 127.798 8.43478Z" fill="url(#paint3_linear)"/>
<path d="M137.76 8.4006L131.876 3.03709C130.492 1.60683 128.069 1.96439 127.031 3.39466L110.419 23.776L100.728 15.1944C99.3439 14.1217 96.9213 14.1217 95.883 15.9095L90.6917 21.9881C89.6535 23.4184 89.6535 25.9214 91.0378 26.9941L109.034 42.727C109.727 43.4422 110.765 43.7997 111.803 43.4422C112.841 43.4422 113.88 43.0846 114.226 42.0119L137.76 13.4065C139.49 11.9763 139.144 9.83087 137.76 8.4006Z" fill="url(#paint4_linear)"/>
<defs>
<linearGradient id="paint0_linear" x1="64.5223" y1="18.5942" x2="64.5223" y2="32.4607" gradientUnits="userSpaceOnUse">
<stop stop-color="#6FC7A1"/>
<stop offset="1" stop-color="#DBFBDF"/>
</linearGradient>
<linearGradient id="paint1_linear" x1="47.683" y1="18.5436" x2="47.683" y2="47.6636" gradientUnits="userSpaceOnUse">
<stop stop-color="#6FC7A1"/>
<stop offset="1" stop-color="#DBFBDF"/>
</linearGradient>
<linearGradient id="paint2_linear" x1="92.9575" y1="69.0209" x2="92.9575" y2="91.7846" gradientUnits="userSpaceOnUse">
<stop stop-color="#6FC7A1"/>
<stop offset="1" stop-color="#DBFBDF"/>
</linearGradient>
<linearGradient id="paint3_linear" x1="104.409" y1="2.16077" x2="104.409" y2="43.6166" gradientUnits="userSpaceOnUse">
<stop stop-color="#1792C7"/>
<stop offset="1" stop-color="#00B8F0"/>
</linearGradient>
<linearGradient id="paint4_linear" x1="114.441" y1="2.12659" x2="114.441" y2="43.5824" gradientUnits="userSpaceOnUse">
<stop stop-color="#00B8F0"/>
<stop offset="0.0001" stop-color="#00B8F0"/>
<stop offset="0.739583" stop-color="#B2EEFC"/>
</linearGradient>
</defs>
</svg>
