<svg width="148" height="132" viewBox="0 0 148 132" fill="none" xmlns="http://www.w3.org/2000/svg">
<g clip-path="url(#clip0)">
<path d="M70.3705 44.0826L81.9127 48.4499L85.9654 137.794L0.0870285 99.5387L70.3705 44.0826Z" fill="url(#paint0_linear)"/>
<path fill-rule="evenodd" clip-rule="evenodd" d="M51.6992 82.4839C51.4581 83.9399 51.7898 85.8316 53.5278 88.0231C55.3731 90.3498 55.8014 92.3316 55.5137 93.8894C55.2285 95.4342 54.252 96.4884 53.425 96.9918L53.019 96.3249C53.6884 95.9175 54.5075 95.0394 54.746 93.7476C54.9821 92.4689 54.6622 90.7098 52.9162 88.5083C51.0629 86.1716 50.6465 84.0622 50.929 82.3563C51.2089 80.6666 52.1667 79.4225 52.9814 78.7849L53.4626 79.3997C52.7809 79.9332 51.9431 81.0118 51.6992 82.4839Z" fill="white"/>
<path fill-rule="evenodd" clip-rule="evenodd" d="M57.1323 82.4839C56.8912 83.9399 57.2229 85.8316 58.9609 88.0231C60.8062 90.3498 61.2345 92.3316 60.9468 93.8894C60.6616 95.4342 59.6851 96.4884 58.8581 96.9918L58.4521 96.3249C59.1215 95.9175 59.9406 95.0394 60.1791 93.7476C60.4152 92.4689 60.0953 90.7098 58.3493 88.5083C56.496 86.1716 56.0796 84.0622 56.3621 82.3563C56.642 80.6666 57.5998 79.4225 58.4145 78.7849L58.8957 79.3997C58.214 79.9332 57.3762 81.0118 57.1323 82.4839Z" fill="white"/>
<path fill-rule="evenodd" clip-rule="evenodd" d="M62.5664 82.4839C62.3252 83.9399 62.6569 85.8316 64.395 88.0231C66.2403 90.3498 66.6685 92.3316 66.3809 93.8894C66.0957 95.4342 65.1191 96.4884 64.2921 96.9918L63.8862 96.3249C64.5556 95.9175 65.3747 95.0394 65.6132 93.7476C65.8493 92.4689 65.5294 90.7098 63.7833 88.5083C61.9301 86.1716 61.5136 84.0622 61.7962 82.3563C62.0761 80.6666 63.0339 79.4225 63.8486 78.7849L64.3298 79.3997C63.6481 79.9332 62.8103 81.0118 62.5664 82.4839Z" fill="white"/>
<path fill-rule="evenodd" clip-rule="evenodd" d="M46.1818 115.932L46.1818 109.687L43.059 109.687C41.3343 109.687 39.9361 111.085 39.9361 112.809C39.9361 114.534 41.3343 115.932 43.059 115.932L46.1818 115.932ZM49.3047 106.564L43.059 106.564C39.6096 106.564 36.8133 109.36 36.8133 112.809C36.8133 116.259 39.6096 119.055 43.059 119.055L49.3047 119.055L49.3047 106.564Z" fill="url(#paint1_linear)"/>
<path fill-rule="evenodd" clip-rule="evenodd" d="M129.118 88.4446L104.939 127.207L107.589 128.86L132.595 88.7711L116.402 47.0729L97.6491 42.5886L96.9228 45.6259L114.083 49.7294L129.118 88.4446Z" fill="#B2EEFC"/>
<rect x="87.917" y="125.301" width="40.2067" height="6.2457" rx="3.12285" fill="#B2EEFC"/>
<ellipse cx="75.8553" cy="46.0459" rx="6.33485" ry="6.33485" transform="rotate(30 75.8553 46.0459)" fill="white"/>
<circle cx="115.047" cy="48.7791" r="2.73249" fill="#2D3238"/>
<circle cx="130.219" cy="88.7713" r="2.73249" fill="#2D3238"/>
<path d="M52.4297 35.2241C57.2619 21.8455 72.0247 14.9173 85.4033 19.7495C98.7819 24.5816 105.71 39.3444 100.878 52.723L100.372 54.1244C99.8606 55.5396 98.2989 56.2725 96.8836 55.7614L53.5606 40.1136C52.1453 39.6024 51.4124 38.0407 51.9236 36.6255L52.4297 35.2241Z" fill="url(#paint2_linear)"/>
<path d="M46.3906 100.318H74.0928V124.621C74.0928 128.446 70.9921 131.546 67.1672 131.546H60.2417H53.3162C49.4913 131.546 46.3906 128.446 46.3906 124.621V100.318Z" fill="url(#paint3_linear)"/>
</g>
<defs>
<linearGradient id="paint0_linear" x1="74.2546" y1="41.0332" x2="46.149" y2="113.639" gradientUnits="userSpaceOnUse">
<stop stop-color="#6FC7A1"/>
<stop offset="1" stop-color="white"/>
</linearGradient>
<linearGradient id="paint1_linear" x1="49.3047" y1="112.809" x2="36.8133" y2="112.809" gradientUnits="userSpaceOnUse">
<stop stop-color="#FA9EC2"/>
<stop offset="1" stop-color="#FFDBEB"/>
</linearGradient>
<linearGradient id="paint2_linear" x1="85.6211" y1="19.5629" x2="75.2221" y2="47.9375" gradientUnits="userSpaceOnUse">
<stop stop-color="#00B8F0"/>
<stop offset="0.0001" stop-color="#00B8F0"/>
<stop offset="1" stop-color="#B2EEFC"/>
</linearGradient>
<linearGradient id="paint3_linear" x1="60.2417" y1="100.318" x2="60.2417" y2="131.546" gradientUnits="userSpaceOnUse">
<stop stop-color="#FA9EC2"/>
<stop offset="1" stop-color="#FFDBEB"/>
</linearGradient>
<clipPath id="clip0">
<rect width="148" height="143" fill="white" transform="translate(0 -11)"/>
</clipPath>
</defs>
</svg>
