<svg width="55" height="55" viewBox="0 0 55 55" fill="none" xmlns="http://www.w3.org/2000/svg">
<path fill-rule="evenodd" clip-rule="evenodd" d="M6.00006 16.8524L6 45.08C6 47.8059 8.20976 50.0156 10.9356 50.0156H37.6228C40.3486 50.0156 42.5584 47.8059 42.5584 45.08L42.5585 10.0355C42.5585 7.30961 40.3487 5.09986 37.6228 5.09985H17.7526L6.00006 16.8524Z" fill="url(#paint0_linear)"/>
<rect x="10.5957" y="30.0001" width="27.3673" height="15.5135" rx="3" fill="white"/>
<path d="M19.8284 35.7619L20.8469 34.9556C20.6984 34.7646 20.518 34.5948 20.3058 34.4463C20.0936 34.3084 19.8602 34.1917 19.6268 34.0962C19.3827 34.0007 19.1281 33.9264 18.8735 33.884C18.6082 33.8415 18.3536 33.8097 18.1201 33.8097C17.5366 33.8097 16.9955 33.9052 16.5074 34.0856C16.0088 34.2765 15.5737 34.5312 15.213 34.8707C14.8523 35.2102 14.5658 35.624 14.3536 36.1121C14.1414 36.6001 14.0459 37.1412 14.0459 37.7354C14.0459 38.3296 14.1414 38.8601 14.343 39.3481C14.534 39.8362 14.8098 40.25 15.1706 40.6001C15.5207 40.9502 15.9451 41.2261 16.4332 41.4171C16.9212 41.608 17.4623 41.7035 18.0565 41.7035C18.6931 41.7035 19.2554 41.5974 19.7435 41.364C20.2209 41.1306 20.6241 40.8123 20.9636 40.3879L19.892 39.6346C19.701 39.8998 19.4464 40.112 19.1387 40.2712C18.8204 40.4303 18.4703 40.5046 18.0671 40.5046C17.6745 40.5046 17.3244 40.4409 17.0167 40.303C16.6984 40.1757 16.4332 39.9847 16.2103 39.7407C15.9875 39.4967 15.8178 39.1996 15.7011 38.8601C15.5737 38.5205 15.5207 38.1492 15.5207 37.7354C15.5207 37.3534 15.5737 36.9927 15.7011 36.6532C15.8284 36.3243 15.9981 36.0378 16.2316 35.7832C16.465 35.5391 16.7408 35.3481 17.0591 35.1996C17.3774 35.0617 17.7276 34.9874 18.1201 34.9874C18.4172 34.9874 18.7355 35.0511 19.0538 35.1784C19.3721 35.3057 19.6268 35.4967 19.8284 35.7619Z" fill="url(#paint1_linear)"/>
<path d="M25.886 35.571L26.756 34.6161C26.4589 34.3508 26.1194 34.1492 25.7269 34.0113C25.3343 33.884 24.9523 33.8097 24.5704 33.8097C24.2308 33.8097 23.8913 33.8627 23.5624 33.9476C23.2335 34.0325 22.9364 34.1704 22.6818 34.3508C22.4271 34.5312 22.2149 34.754 22.0558 35.0298C21.8966 35.3057 21.8224 35.6346 21.8224 36.0166C21.8224 36.3773 21.8754 36.6744 21.9921 36.9078C22.0982 37.1412 22.2468 37.3428 22.4271 37.502C22.6075 37.6717 22.8091 37.7991 23.0425 37.8945C23.2653 38.0006 23.4881 38.0855 23.7216 38.1492L24.39 38.372C24.6022 38.4463 24.7826 38.5311 24.9417 38.6266C25.0903 38.7221 25.2176 38.8388 25.3131 38.9662C25.3979 39.0935 25.451 39.2632 25.451 39.4542C25.451 39.6664 25.4086 39.8362 25.3237 39.9741C25.2388 40.112 25.1327 40.2287 25.0054 40.3136C24.8781 40.4091 24.7295 40.4728 24.5704 40.5152C24.4006 40.5577 24.2415 40.5683 24.0929 40.5683C23.7958 40.5683 23.4881 40.494 23.1805 40.3455C22.8728 40.1969 22.6287 39.9953 22.4484 39.7407L21.4935 40.6319C21.7905 40.9927 22.1725 41.2579 22.6393 41.4383C23.1062 41.6187 23.5836 41.7035 24.0717 41.7035C24.4324 41.7035 24.7826 41.6611 25.1221 41.555C25.451 41.4595 25.7375 41.311 25.9921 41.1094C26.2361 40.9184 26.4377 40.6638 26.5863 40.3667C26.7348 40.0696 26.8091 39.7089 26.8091 39.3057C26.8091 38.9449 26.7348 38.6372 26.5969 38.3826C26.459 38.1386 26.2786 37.937 26.0664 37.7672C25.8542 37.6081 25.6101 37.4808 25.3555 37.3747C25.1009 37.2792 24.8462 37.1943 24.6128 37.1094C24.4006 37.0457 24.199 36.9821 24.0293 36.9184C23.8489 36.8548 23.7003 36.7805 23.573 36.6956C23.4457 36.6107 23.3502 36.5152 23.2866 36.3879C23.2123 36.2712 23.1805 36.1227 23.1805 35.9529C23.1805 35.7725 23.2123 35.6134 23.2972 35.4861C23.382 35.3588 23.4881 35.2527 23.6155 35.1678C23.7428 35.0829 23.8807 35.0298 24.0399 34.9874C24.1884 34.945 24.3476 34.9237 24.5067 34.9237C24.7613 34.9237 25.0266 34.9874 25.2812 35.1147C25.5359 35.242 25.7375 35.3906 25.886 35.571Z" fill="url(#paint2_linear)"/>
<path d="M27.3725 34.0007L30.3433 41.5126H31.4998L34.513 34.0007H33.0701L30.9799 39.7831H30.9375L28.8685 34.0007H27.3725Z" fill="url(#paint3_linear)"/>
<path fill-rule="evenodd" clip-rule="evenodd" d="M5.944 16.7877L17.7477 4.98398L17.75 4.99514L17.75 11.8521C17.75 14.578 15.5402 16.7877 12.8144 16.7877L5.944 16.7877Z" fill="url(#paint4_linear)"/>
<defs>
<linearGradient id="paint0_linear" x1="24.2792" y1="5.09985" x2="24.2792" y2="50.0156" gradientUnits="userSpaceOnUse">
<stop stop-color="#00B8F0"/>
<stop offset="0.0001" stop-color="#00B8F0"/>
<stop offset="0.739583" stop-color="#B2EEFC"/>
</linearGradient>
<linearGradient id="paint1_linear" x1="24.2795" y1="33.8097" x2="24.2795" y2="41.7035" gradientUnits="userSpaceOnUse">
<stop stop-color="#F86CA2"/>
<stop offset="1" stop-color="#FA9EC2"/>
</linearGradient>
<linearGradient id="paint2_linear" x1="24.2795" y1="33.8097" x2="24.2795" y2="41.7035" gradientUnits="userSpaceOnUse">
<stop stop-color="#F86CA2"/>
<stop offset="1" stop-color="#FA9EC2"/>
</linearGradient>
<linearGradient id="paint3_linear" x1="24.2795" y1="33.8097" x2="24.2795" y2="41.7035" gradientUnits="userSpaceOnUse">
<stop stop-color="#F86CA2"/>
<stop offset="1" stop-color="#FA9EC2"/>
</linearGradient>
<linearGradient id="paint4_linear" x1="11.847" y1="16.7877" x2="11.847" y2="4.98393" gradientUnits="userSpaceOnUse">
<stop stop-color="#1792C7"/>
<stop offset="1" stop-color="#00B8F0"/>
</linearGradient>
</defs>
</svg>
