<svg width="55" height="59" viewBox="0 0 55 59" fill="none" xmlns="http://www.w3.org/2000/svg">
<path d="M26.9377 43.0349C27.0065 43.0331 27.0754 43.0322 27.1446 43.0322C31.5504 43.0322 35.1217 46.5909 35.1217 50.9808C35.1217 52.627 34.6195 54.1564 33.7594 55.4249C32.924 56.6571 31.7509 57.6434 30.3725 58.2518C29.3856 58.6874 28.2935 58.9294 27.1446 58.9294C22.7388 58.9294 19.1675 55.3708 19.1675 50.9808C19.1675 46.6598 22.6275 43.1442 26.9377 43.0349Z" fill="url(#paint0_linear)"/>
<path d="M27.1478 0.558594C29.3558 0.557746 31.3315 2.10518 31.7833 4.34536C32.2977 6.8979 30.6386 9.38303 28.0769 9.89593C27.9461 9.92212 27.8154 9.94265 27.6852 9.9577C25.2652 10.2377 22.9947 8.62519 22.506 6.20246C21.9911 3.64991 23.6507 1.16479 26.2124 0.651892C26.5264 0.58903 26.8394 0.558708 27.1478 0.558594Z" fill="url(#paint1_linear)"/>
<path d="M49.7405 40.2585L50.9767 41.2853C52.2674 42.3576 53.0816 43.8813 53.265 45.5275C53.2912 45.7626 53.3045 46.0003 53.3045 46.2395C53.3045 46.2394 53.3045 46.2396 53.3045 46.2395L53.3046 46.3042C53.3046 46.3316 53.3044 46.359 53.304 46.3863C53.3033 46.4388 53.302 46.4911 53.3001 46.5434C53.1739 49.9554 50.358 52.683 46.9024 52.683H7.38678C3.85081 52.683 0.984619 49.8271 0.984619 46.3042C0.984619 44.3538 1.87056 42.5081 3.39407 41.2837L4.66349 40.2631C7.59983 37.9034 9.30728 34.3464 9.30728 30.5876V23.8836C9.30728 15.0077 15.7868 7.6402 24.2898 6.22114C25.2624 6.05836 26.2615 5.97339 27.2807 5.97339C36.8967 5.97339 44.7494 13.4986 45.2308 22.9611C45.2385 23.1137 45.2444 23.2669 45.2483 23.4205C45.2522 23.5744 45.2542 23.7288 45.2542 23.8836V30.7115C45.2542 30.74 45.2543 30.7685 45.2545 30.797C45.2559 30.9985 45.2622 31.1995 45.2733 31.3997C45.4643 34.8316 47.0754 38.0439 49.7405 40.2585Z" fill="url(#paint2_linear)"/>
<path d="M54.6732 13.9621C54.6732 7.99465 49.8358 3.15698 43.8683 3.15698C37.9008 3.15698 33.063 7.99465 33.063 13.9621C33.063 19.9295 37.9008 24.7672 43.8683 24.7672C49.8358 24.7672 54.6732 19.9295 54.6732 13.9621Z" fill="url(#paint3_linear)"/>
<path d="M44.0738 18.8734C43.6447 18.8734 43.2969 18.5448 43.2969 18.1391V11.0554L43.0072 11.3056C42.6901 11.5789 42.1988 11.5576 41.9098 11.2577C41.6209 10.9581 41.6433 10.4935 41.9604 10.2202L43.5502 8.84946C43.7777 8.65354 44.1056 8.60278 44.3875 8.72026C44.6689 8.83775 44.8503 9.10111 44.8503 9.39215V18.1391C44.8503 18.5448 44.5025 18.8734 44.0738 18.8734Z" fill="white"/>
<defs>
<linearGradient id="paint0_linear" x1="27.1446" y1="43.0322" x2="27.1446" y2="58.9294" gradientUnits="userSpaceOnUse">
<stop stop-color="#1792C7"/>
<stop offset="1" stop-color="#00B8F0"/>
</linearGradient>
<linearGradient id="paint1_linear" x1="27.1446" y1="0.558594" x2="27.1446" y2="9.98922" gradientUnits="userSpaceOnUse">
<stop stop-color="#1792C7"/>
<stop offset="1" stop-color="#00B8F0"/>
</linearGradient>
<linearGradient id="paint2_linear" x1="27.1446" y1="5.97339" x2="27.1446" y2="52.683" gradientUnits="userSpaceOnUse">
<stop stop-color="#00B8F0"/>
<stop offset="0.0001" stop-color="#00B8F0"/>
<stop offset="0.739583" stop-color="#B2EEFC"/>
</linearGradient>
<linearGradient id="paint3_linear" x1="43.8681" y1="3.15698" x2="43.8681" y2="24.7672" gradientUnits="userSpaceOnUse">
<stop stop-color="#F86CA2"/>
<stop offset="1" stop-color="#FA9EC2"/>
</linearGradient>
</defs>
</svg>
