<svg width="200" height="181" viewBox="0 0 200 181" fill="none" xmlns="http://www.w3.org/2000/svg">
<mask id="mask0" mask-type="alpha" maskUnits="userSpaceOnUse" x="0" y="0" width="114" height="131">
<path d="M56.7017 130.822C53.8512 130.822 51.9516 129.959 51.7249 129.876C51.1662 129.674 0 109.444 0 47.3539V1.98167C0 0.887787 0.906875 0 2.02427 0H111.335C112.453 0 113.359 1.07828 113.359 1.98167V47.3539C113.359 106.008 67.9454 127.304 62.4488 129.654C62.0776 129.813 61.7309 129.974 61.3435 130.088C60.3027 130.394 58.1507 130.822 56.7017 130.822Z" fill="white"/>
</mask>
<g mask="url(#mask0)">
<path d="M132.301 21.9847L156.416 40.0898C162.11 44.9376 163.742 52.3953 157 57.5778L66.2459 159.864C62.8483 163.189 61.0152 165.183 56.8699 165.295L56.328 84.4772L112.998 23.7544C116.976 18.6463 126.607 17.1368 132.301 21.9847Z" fill="url(#paint0_linear)"/>
<path d="M-19.9373 22.8077L-43.8083 41.1722C-49.4367 46.0813 -50.9685 53.5561 -44.1575 58.6653L47.9618 159.963C51.4038 163.251 53.2634 165.225 57.4099 165.292L56.868 84.4744L-0.611898 24.3686C-4.65863 19.3039 -14.3089 17.8987 -19.9373 22.8077Z" fill="url(#paint1_linear)"/>
<path d="M131.876 -41.569L155.991 -23.4639C161.685 -18.6161 163.317 -11.1584 156.575 -5.97592L65.8211 96.31C62.4235 99.6349 60.5904 101.629 56.4451 101.741L55.9032 20.9235L112.573 -39.7993C116.551 -44.9074 126.182 -46.4169 131.876 -41.569Z" fill="url(#paint2_linear)"/>
<path d="M-20.3636 -40.746L-44.2345 -22.3815C-49.863 -17.4724 -51.3948 -9.99766 -44.5837 -4.88843L47.5355 96.4089C50.9775 99.6969 52.8371 101.671 56.9836 101.738L56.4417 20.9207L-1.03817 -39.1851C-5.0849 -44.2498 -14.7351 -45.655 -20.3636 -40.746Z" fill="url(#paint3_linear)"/>
<path d="M131.465 -102.709L155.581 -84.6036C161.275 -79.7557 162.907 -72.2981 156.164 -67.1156L65.4105 35.1703C62.0128 38.4952 60.1798 40.4897 56.0345 40.6012L55.4925 -40.2161L112.162 -100.939C116.141 -106.047 125.771 -107.557 131.465 -102.709Z" fill="url(#paint4_linear)"/>
<path d="M-20.7737 -101.886L-44.6447 -83.5211C-50.2731 -78.6121 -51.805 -71.1373 -44.9939 -66.0281L47.1253 35.2693C50.5674 38.5572 52.427 40.5317 56.5735 40.5984L56.0315 -40.2189L-1.44832 -100.325C-5.49506 -105.389 -15.1453 -106.795 -20.7737 -101.886Z" fill="url(#paint5_linear)"/>
</g>
<g clip-path="url(#clip0)">
<path d="M155 116.252H143.722V54.7898C143.722 47.8284 140.959 41.1521 136.042 36.2296C131.124 31.3071 124.455 28.5417 117.5 28.5417C110.545 28.5417 103.876 31.3071 98.9582 36.2296C94.0407 41.1521 91.278 47.8284 91.278 54.7898V116.252H80V54.7898C80 44.8343 83.9509 35.2865 90.9835 28.2469C98.0161 21.2073 107.554 17.2524 117.5 17.2524C127.446 17.2524 136.984 21.2073 144.017 28.2469C151.049 35.2865 155 44.8343 155 54.7898V116.252Z" fill="url(#paint6_linear)"/>
<g opacity="0.4">
<path opacity="0.4" d="M154.916 116.206H143.607V54.6666C143.607 47.6965 140.837 41.0119 135.906 36.0833C130.975 31.1547 124.287 28.3858 117.313 28.3858C110.34 28.3858 103.651 31.1547 98.7204 36.0833C93.7893 41.0119 91.019 47.6965 91.019 54.6666V116.206H79.71V54.6666C79.71 44.6987 83.6717 35.139 90.7237 28.0906C97.7756 21.0423 107.34 17.0825 117.313 17.0825C127.286 17.0825 136.851 21.0423 143.903 28.0906C150.955 35.139 154.916 44.6987 154.916 54.6666V116.206Z" fill="url(#paint7_linear)"/>
</g>
<path d="M162.758 89.2524H72.2417C69.3468 89.2524 67 91.6067 67 94.5107V148.994C67 151.898 69.3468 154.252 72.2417 154.252H162.758C165.653 154.252 168 151.898 168 148.994V94.5107C168 91.6067 165.653 89.2524 162.758 89.2524Z" fill="url(#paint8_linear)"/>
<g opacity="0.5">
<path d="M125.788 112.857C125.789 111.281 125.35 109.736 124.521 108.395C123.691 107.055 122.504 105.972 121.092 105.269C119.681 104.567 118.101 104.272 116.531 104.417C114.96 104.563 113.462 105.143 112.204 106.093C110.946 107.044 109.978 108.326 109.409 109.796C108.84 111.266 108.693 112.866 108.984 114.415C109.275 115.964 109.993 117.401 111.056 118.565C112.12 119.728 113.487 120.572 115.004 121.002V133.672H119.622V121.002C121.398 120.502 122.962 119.436 124.075 117.965C125.189 116.495 125.79 114.701 125.788 112.857Z" fill="#2D3238"/>
</g>
<path d="M7.16612 151.244C9.02961 151.244 10.5403 149.734 10.5403 147.872C10.5403 146.009 9.02961 144.5 7.16612 144.5C5.30264 144.5 3.79199 146.009 3.79199 147.872C3.79199 149.734 5.30264 151.244 7.16612 151.244Z" fill="url(#paint9_linear)"/>
<path d="M200.001 40.9486C199.999 41.6153 199.8 42.2665 199.428 42.8201C199.057 43.3736 198.529 43.8047 197.912 44.0587C197.296 44.3128 196.618 44.3784 195.964 44.2474C195.31 44.1164 194.709 43.7946 194.238 43.3227C193.767 42.8507 193.446 42.2498 193.317 41.5958C193.187 40.9419 193.254 40.2642 193.51 39.6484C193.766 39.0326 194.198 38.5064 194.753 38.1362C195.308 37.766 195.96 37.5684 196.627 37.5684C197.07 37.5684 197.51 37.6558 197.92 37.8258C198.329 37.9958 198.702 38.2449 199.015 38.5589C199.329 38.8729 199.577 39.2456 199.746 39.6556C199.915 40.0657 200.002 40.5051 200.001 40.9486Z" fill="url(#paint10_linear)"/>
<path d="M30.8712 156.573C30.8712 156.743 30.8207 156.91 30.7261 157.051C30.6315 157.193 30.497 157.303 30.3396 157.368C30.1823 157.433 30.0091 157.451 29.8421 157.417C29.675 157.384 29.5216 157.302 29.4011 157.182C29.2807 157.061 29.1987 156.908 29.1655 156.741C29.1322 156.574 29.1493 156.401 29.2145 156.244C29.2797 156.087 29.39 155.952 29.5316 155.858C29.6733 155.763 29.8398 155.712 30.0101 155.712C30.1235 155.711 30.2359 155.733 30.3409 155.776C30.4458 155.819 30.5412 155.882 30.6213 155.962C30.7015 156.042 30.7649 156.138 30.8078 156.243C30.8507 156.347 30.8723 156.46 30.8712 156.573Z" fill="url(#paint11_linear)"/>
<path d="M57 59.2524C57 59.4502 56.9414 59.6436 56.8315 59.808C56.7216 59.9725 56.5654 60.1006 56.3827 60.1763C56.2 60.252 55.9989 60.2718 55.8049 60.2332C55.6109 60.1946 55.4327 60.0994 55.2929 59.9595C55.153 59.8197 55.0578 59.6415 55.0192 59.4475C54.9806 59.2536 55.0004 59.0525 55.0761 58.8698C55.1518 58.687 55.28 58.5309 55.4444 58.421C55.6089 58.3111 55.8022 58.2524 56 58.2524C56.2652 58.2524 56.5196 58.3578 56.7071 58.5453C56.8946 58.7329 57 58.9872 57 59.2524Z" fill="url(#paint12_linear)"/>
<path d="M183.067 107.998C183.067 108.168 183.017 108.335 182.922 108.476C182.827 108.618 182.693 108.728 182.535 108.793C182.378 108.858 182.205 108.875 182.038 108.842C181.871 108.809 181.717 108.727 181.597 108.607C181.477 108.486 181.395 108.333 181.361 108.166C181.328 107.999 181.345 107.826 181.41 107.669C181.475 107.511 181.586 107.377 181.727 107.282C181.869 107.188 182.036 107.137 182.206 107.137C182.319 107.136 182.432 107.158 182.537 107.201C182.642 107.244 182.737 107.307 182.817 107.387C182.897 107.467 182.961 107.562 183.004 107.667C183.047 107.772 183.068 107.885 183.067 107.998Z" fill="url(#paint13_linear)"/>
<path d="M194.967 68.0218C194.968 68.1924 194.919 68.3596 194.826 68.5021C194.732 68.6447 194.598 68.7562 194.441 68.8226C194.284 68.8889 194.11 68.9071 193.943 68.8748C193.775 68.8424 193.621 68.7611 193.5 68.641C193.378 68.521 193.296 68.3676 193.262 68.2005C193.228 68.0333 193.244 67.8598 193.309 67.7021C193.374 67.5444 193.485 67.4095 193.626 67.3146C193.768 67.2196 193.935 67.169 194.106 67.1689C194.333 67.1689 194.551 67.2585 194.712 67.4183C194.873 67.578 194.965 67.7949 194.967 68.0218Z" fill="url(#paint14_linear)"/>
</g>
<defs>
<linearGradient id="paint0_linear" x1="106.207" y1="19.5032" x2="110.092" y2="163.862" gradientUnits="userSpaceOnUse">
<stop stop-color="#00B8F0"/>
<stop offset="0.0001" stop-color="#00B8F0"/>
<stop offset="0.739583" stop-color="#B2EEFC"/>
</linearGradient>
<linearGradient id="paint1_linear" x1="6.12113" y1="20.0443" x2="3.79773" y2="164.429" gradientUnits="userSpaceOnUse">
<stop stop-color="#00B8F0"/>
<stop offset="0.0001" stop-color="#00B8F0"/>
<stop offset="0.739583" stop-color="#B2EEFC"/>
</linearGradient>
<linearGradient id="paint2_linear" x1="105.782" y1="-44.0505" x2="109.667" y2="100.309" gradientUnits="userSpaceOnUse">
<stop stop-color="#00B8F0"/>
<stop offset="0.0001" stop-color="#00B8F0"/>
<stop offset="0.739583" stop-color="#B2EEFC"/>
</linearGradient>
<linearGradient id="paint3_linear" x1="5.69486" y1="-43.5094" x2="3.37146" y2="100.875" gradientUnits="userSpaceOnUse">
<stop stop-color="#00B8F0"/>
<stop offset="0.0001" stop-color="#00B8F0"/>
<stop offset="0.739583" stop-color="#B2EEFC"/>
</linearGradient>
<linearGradient id="paint4_linear" x1="105.372" y1="-105.19" x2="109.256" y2="39.1691" gradientUnits="userSpaceOnUse">
<stop stop-color="#00B8F0"/>
<stop offset="0.0001" stop-color="#00B8F0"/>
<stop offset="0.739583" stop-color="#B2EEFC"/>
</linearGradient>
<linearGradient id="paint5_linear" x1="5.28471" y1="-104.649" x2="2.9613" y2="39.7357" gradientUnits="userSpaceOnUse">
<stop stop-color="#00B8F0"/>
<stop offset="0.0001" stop-color="#00B8F0"/>
<stop offset="0.739583" stop-color="#B2EEFC"/>
</linearGradient>
<linearGradient id="paint6_linear" x1="117.5" y1="17.2524" x2="117.5" y2="116.252" gradientUnits="userSpaceOnUse">
<stop stop-color="#6FC7A1"/>
<stop offset="1" stop-color="#DBFBDF"/>
</linearGradient>
<linearGradient id="paint7_linear" x1="117.313" y1="17.0825" x2="117.313" y2="116.206" gradientUnits="userSpaceOnUse">
<stop stop-color="#6FC7A1"/>
<stop offset="1" stop-color="#DBFBDF"/>
</linearGradient>
<linearGradient id="paint8_linear" x1="117.5" y1="89.2524" x2="117.5" y2="154.252" gradientUnits="userSpaceOnUse">
<stop stop-color="#19C6C8"/>
<stop offset="1" stop-color="#6FC7A1"/>
</linearGradient>
<linearGradient id="paint9_linear" x1="7.16612" y1="144.5" x2="7.16612" y2="151.244" gradientUnits="userSpaceOnUse">
<stop stop-color="#1792C7"/>
<stop offset="1" stop-color="#00B8F0"/>
</linearGradient>
<linearGradient id="paint10_linear" x1="196.627" y1="37.5684" x2="196.627" y2="44.3132" gradientUnits="userSpaceOnUse">
<stop stop-color="#1792C7"/>
<stop offset="1" stop-color="#00B8F0"/>
</linearGradient>
<linearGradient id="paint11_linear" x1="30.0101" y1="155.712" x2="30.0101" y2="157.434" gradientUnits="userSpaceOnUse">
<stop stop-color="#1792C7"/>
<stop offset="1" stop-color="#00B8F0"/>
</linearGradient>
<linearGradient id="paint12_linear" x1="56" y1="58.2524" x2="56" y2="60.2524" gradientUnits="userSpaceOnUse">
<stop stop-color="#1792C7"/>
<stop offset="1" stop-color="#00B8F0"/>
</linearGradient>
<linearGradient id="paint13_linear" x1="182.206" y1="107.137" x2="182.206" y2="108.859" gradientUnits="userSpaceOnUse">
<stop stop-color="#1792C7"/>
<stop offset="1" stop-color="#00B8F0"/>
</linearGradient>
<linearGradient id="paint14_linear" x1="194.106" y1="67.1689" x2="194.106" y2="68.8904" gradientUnits="userSpaceOnUse">
<stop stop-color="#1792C7"/>
<stop offset="1" stop-color="#00B8F0"/>
</linearGradient>
<clipPath id="clip0">
<rect width="196.209" height="170.616" fill="white" transform="translate(3.7915 10.252)"/>
</clipPath>
</defs>
</svg>
