<svg width="174" height="160" viewBox="0 0 174 160" fill="none" xmlns="http://www.w3.org/2000/svg">
<g clip-path="url(#clip0)">
<path d="M82.0249 35.4395L96.8091 41.0335L102 155.473L-7.99994 106.472L82.0249 35.4395Z" fill="url(#paint0_linear)"/>
<path fill-rule="evenodd" clip-rule="evenodd" d="M58.1086 84.6276C57.7996 86.4926 58.2245 88.9157 60.4508 91.7227C62.8144 94.7028 63.3629 97.2413 62.9945 99.2367C62.6291 101.215 61.3783 102.566 60.319 103.211L59.7991 102.356C60.6565 101.834 61.7056 100.71 62.0111 99.0551C62.3135 97.4172 61.9037 95.164 59.6673 92.3441C57.2935 89.3511 56.7601 86.6492 57.122 84.4642C57.4805 82.2998 58.7074 80.7063 59.7509 79.8896L60.3672 80.6772C59.494 81.3605 58.4209 82.742 58.1086 84.6276Z" fill="white"/>
<path fill-rule="evenodd" clip-rule="evenodd" d="M65.0686 84.6276C64.7597 86.4926 65.1846 88.9157 67.4109 91.7227C69.7744 94.7028 70.323 97.2413 69.9546 99.2367C69.5892 101.215 68.3384 102.566 67.2791 103.211L66.7591 102.356C67.6165 101.834 68.6657 100.71 68.9712 99.0551C69.2736 97.4172 68.8638 95.164 66.6274 92.3441C64.2536 89.3511 63.7202 86.6492 64.0821 84.4642C64.4406 82.2998 65.6675 80.7063 66.711 79.8896L67.3273 80.6772C66.4541 81.3605 65.381 82.742 65.0686 84.6276Z" fill="white"/>
<path fill-rule="evenodd" clip-rule="evenodd" d="M72.0285 84.6276C71.7196 86.4926 72.1444 88.9157 74.3707 91.7227C76.7343 94.7028 77.2828 97.2413 76.9144 99.2367C76.5491 101.215 75.2982 102.566 74.2389 103.211L73.719 102.356C74.5764 101.834 75.6255 100.71 75.931 99.0551C76.2335 97.4172 75.8237 95.164 73.5872 92.3441C71.2135 89.3511 70.68 86.6492 71.0419 84.4642C71.4004 82.2998 72.6273 80.7063 73.6708 79.8896L74.2871 80.6772C73.4139 81.3605 72.3408 82.742 72.0285 84.6276Z" fill="white"/>
<path fill-rule="evenodd" clip-rule="evenodd" d="M51.0422 127.472L51.0422 119.472L47.0422 119.472C44.8331 119.472 43.0422 121.263 43.0422 123.472C43.0422 125.681 44.8331 127.472 47.0422 127.472L51.0422 127.472ZM55.0422 115.472L47.0422 115.472C42.624 115.472 39.0422 119.054 39.0422 123.472C39.0422 127.89 42.624 131.472 47.0422 131.472L55.0422 131.472L55.0422 115.472Z" fill="url(#paint1_linear)"/>
<path fill-rule="evenodd" clip-rule="evenodd" d="M157.273 92.263L126.303 141.914L129.697 144.031L161.727 92.6813L140.985 39.2708L116.965 33.527L116.035 37.4173L138.015 42.6735L157.273 92.263Z" fill="#B2EEFC"/>
<rect x="104.5" y="139.472" width="51.5" height="8" rx="4" fill="#B2EEFC"/>
<ellipse cx="89.0506" cy="37.9555" rx="8.11419" ry="8.11419" transform="rotate(30 89.0506 37.9555)" fill="white"/>
<circle cx="139.25" cy="41.4556" r="3.5" fill="#2D3238"/>
<circle cx="158.684" cy="92.6816" r="3.5" fill="#2D3238"/>
<path d="M59.0449 24.0936C65.2344 6.95723 84.1438 -1.91702 101.28 4.27244C118.417 10.4619 127.291 29.3713 121.101 46.5076L120.453 48.3027C119.798 50.1154 117.798 51.0542 115.985 50.3994L60.4934 30.3565C58.6806 29.7017 57.7418 27.7014 58.3966 25.8886L59.0449 24.0936Z" fill="url(#paint2_linear)"/>
<path d="M51.3091 107.472H86.7922V138.601C86.7922 143.501 82.8207 147.472 77.9214 147.472H69.0507H60.1799C55.2807 147.472 51.3091 143.501 51.3091 138.601V107.472Z" fill="url(#paint3_linear)"/>
</g>
<defs>
<linearGradient id="paint0_linear" x1="87" y1="31.5336" x2="51" y2="124.534" gradientUnits="userSpaceOnUse">
<stop stop-color="#6FC7A1"/>
<stop offset="1" stop-color="white"/>
</linearGradient>
<linearGradient id="paint1_linear" x1="55.0422" y1="123.472" x2="39.0422" y2="123.472" gradientUnits="userSpaceOnUse">
<stop stop-color="#FA9EC2"/>
<stop offset="1" stop-color="#FFDBEB"/>
</linearGradient>
<linearGradient id="paint2_linear" x1="101.559" y1="4.03345" x2="88.2392" y2="40.378" gradientUnits="userSpaceOnUse">
<stop stop-color="#00B8F0"/>
<stop offset="0.0001" stop-color="#00B8F0"/>
<stop offset="1" stop-color="#B2EEFC"/>
</linearGradient>
<linearGradient id="paint3_linear" x1="69.0507" y1="107.472" x2="69.0507" y2="147.472" gradientUnits="userSpaceOnUse">
<stop stop-color="#FA9EC2"/>
<stop offset="1" stop-color="#FFDBEB"/>
</linearGradient>
<clipPath id="clip0">
<rect width="174" height="159" fill="white" transform="translate(0 0.0654297)"/>
</clipPath>
</defs>
</svg>
