<svg width="79" height="130" viewBox="0 0 79 130" fill="none" xmlns="http://www.w3.org/2000/svg">
<path d="M22.379 11.2024C22.5208 10.8478 22.968 10.7316 23.378 10.943L36.8818 17.9051C37.2917 18.1164 37.509 18.5752 37.3672 18.9298L35.2467 24.2325C35.1049 24.5871 34.6576 24.7033 34.2477 24.492L20.7439 17.5299C20.334 17.3185 20.1167 16.8597 20.2585 16.5051L22.379 11.2024Z" fill="url(#paint0_linear)"/>
<path d="M31.1893 18.8716C30.691 20.103 29.1546 20.5172 27.7577 19.7969C26.3608 19.0765 25.6323 17.4943 26.1305 16.2629C26.6288 15.0315 28.1652 14.6172 29.5621 15.3375C30.959 16.0579 31.6875 17.6401 31.1893 18.8716Z" fill="white"/>
<path d="M42.0866 26.7101C41.6887 26.4479 41.552 25.9562 41.7811 25.6119L53.612 7.83462C53.8412 7.49032 54.3495 7.42375 54.7473 7.68594L64.4742 14.096C64.872 14.3581 65.0088 14.8498 64.7797 15.1941L52.9487 32.9714C52.7196 33.3157 52.2113 33.3823 51.8135 33.1201L42.0866 26.7101Z" fill="url(#paint1_linear)"/>
<path d="M55.0121 17.5594C56.9759 18.8699 57.6765 21.2922 56.5768 22.9697C55.4772 24.6472 52.9937 24.9447 51.0299 23.6343C49.0661 22.3238 48.3656 19.9016 49.4652 18.2241C50.5649 16.5465 53.0483 16.249 55.0121 17.5594Z" fill="white"/>
<path d="M73.9211 26.8609C74.3077 27.1296 74.426 27.6224 74.1854 27.9616L65.8925 39.6519C65.6519 39.9911 65.1434 40.0483 64.7568 39.7796L58.6763 35.5542C58.2897 35.2855 58.1713 34.7928 58.412 34.4536L66.7049 22.7632C66.9455 22.424 67.454 22.3669 67.8406 22.6355L73.9211 26.8609Z" fill="url(#paint2_linear)"/>
<path d="M65.0332 33.1436C63.712 32.2154 63.289 30.5377 64.0882 29.3963C64.8875 28.2549 66.6065 28.0821 67.9277 29.0103C69.2488 29.9385 69.6719 31.6162 68.8726 32.7576C68.0733 33.899 66.3543 34.0718 65.0332 33.1436Z" fill="white"/>
<path d="M28.7423 50.7435C29.129 51.0122 29.2473 51.5049 29.0067 51.8441L20.7138 63.5345C20.4732 63.8737 19.9647 63.9309 19.5781 63.6622L13.4976 59.4368C13.111 59.1682 12.9926 58.6754 13.2332 58.3362L21.5262 46.6458C21.7668 46.3066 22.2753 46.2495 22.6619 46.5181L28.7423 50.7435Z" fill="url(#paint3_linear)"/>
<path d="M19.855 57.027C18.5338 56.0988 18.1107 54.421 18.91 53.2796C19.7093 52.1382 21.4283 51.9654 22.7494 52.8936C24.0706 53.8218 24.4937 55.4995 23.6944 56.6409C22.8951 57.7823 21.1761 57.9551 19.855 57.027Z" fill="white"/>
<path d="M15.9905 43.7467C15.53 43.9525 15.0515 43.8085 14.9217 43.425L12.92 37.511C12.7902 37.1276 13.0583 36.6498 13.5187 36.444L16.3059 35.1979C16.7663 34.9921 17.2448 35.1361 17.3746 35.5195L19.3763 41.4336C19.5061 41.817 19.2381 42.2948 18.7776 42.5006L15.9905 43.7467Z" fill="url(#paint4_linear)"/>
<path d="M15.7773 38.435C16.5436 38.0863 17.3344 38.318 17.5436 38.9527C17.7529 39.5873 17.3013 40.3845 16.535 40.7333C15.7687 41.082 14.9778 40.8503 14.7686 40.2156C14.5594 39.581 15.011 38.7838 15.7773 38.435Z" fill="white"/>
<path d="M52.8401 43.724C53.1422 43.4142 53.6338 43.4135 53.9379 43.7223L62.1149 52.0252C62.419 52.3341 62.4206 52.8355 62.1185 53.1453L58.53 56.8239C58.2278 57.1336 57.7363 57.1344 57.4322 56.8255L49.2552 48.5226C48.9511 48.2137 48.9494 47.7123 49.2516 47.4025L52.8401 43.724Z" fill="url(#paint5_linear)"/>
<path d="M57.1136 51.6456C56.2635 52.517 54.8992 52.5379 54.0664 51.6925C53.2337 50.847 53.2477 49.4552 54.0979 48.5838C54.948 47.7125 56.3123 47.6915 57.1451 48.537C57.9779 49.3825 57.9638 50.7742 57.1136 51.6456Z" fill="white"/>
<path fill-rule="evenodd" clip-rule="evenodd" d="M78.2299 37.1641C78.4156 37.4737 78.3152 37.8752 78.0056 38.061C75.7351 39.4233 73.0955 40.1023 70.4532 40.5344C69.1296 40.7509 67.7924 40.9073 66.4916 41.0537C66.3482 41.0698 66.2054 41.0858 66.0631 41.1017C64.9085 41.2311 63.7884 41.3565 62.7165 41.5147C61.8004 41.6499 60.8867 41.773 59.9779 41.8954C54.7067 42.6057 49.5997 43.2938 45.1296 46.1836C40.9494 48.886 37.2485 53.6925 35.7007 58.4764C34.6368 61.7649 35.3932 64.2724 36.9632 67.3662C37.1265 67.6881 36.998 68.0815 36.6761 68.2449C36.3541 68.4083 35.9607 68.2797 35.7973 67.9578C34.1635 64.7383 33.2369 61.8446 34.4568 58.0739C36.0972 53.0038 39.9867 47.9515 44.4198 45.0857C49.1566 42.0235 54.5931 41.2956 59.8542 40.5911C60.7512 40.471 61.6432 40.3515 62.5257 40.2213C63.6217 40.0596 64.7658 39.9315 65.917 39.8026C66.0597 39.7866 66.2025 39.7706 66.3454 39.7545C67.646 39.6082 68.9542 39.4549 70.2422 39.2442C72.8232 38.8221 75.2719 38.1766 77.333 36.9399C77.6426 36.7542 78.0441 36.8546 78.2299 37.1641Z" fill="#FFDBEB"/>
<path fill-rule="evenodd" clip-rule="evenodd" d="M32.4043 10.0982C32.6596 9.84292 33.0735 9.84292 33.3288 10.0982C37.3923 14.1617 41.1462 19.811 41.8291 25.7289C42.6498 32.8415 40.6676 39.5882 38.7373 46.1586C38.4386 47.1753 38.1411 48.1879 37.8555 49.1969C37.5855 50.1503 37.292 51.0922 36.9998 52.0298C36.4296 53.8592 35.8646 55.6722 35.4902 57.5222C34.9314 60.2838 34.8327 62.9984 35.8224 65.6789C35.9475 66.0176 35.7743 66.3935 35.4356 66.5186C35.097 66.6436 34.721 66.4704 34.596 66.1318C33.4908 63.1384 33.6238 60.1541 34.2089 57.2629C34.5959 55.3504 35.1966 53.4207 35.7787 51.5508C36.0655 50.6298 36.3476 49.7234 36.5975 48.8407C36.8893 47.8101 37.1901 46.7842 37.4901 45.7613C39.4221 39.1727 41.3182 32.7067 40.5303 25.8788C39.895 20.3726 36.3634 14.9817 32.4043 11.0226C32.1491 10.7674 32.1491 10.3535 32.4043 10.0982Z" fill="#FFDBEB"/>
<path fill-rule="evenodd" clip-rule="evenodd" d="M7.09782 40.43C7.42072 40.2685 7.81337 40.3994 7.97482 40.7223C8.09915 40.971 8.44102 41.2408 9.00543 41.5135C9.38235 41.6957 9.76335 41.838 10.1276 41.9741C10.2982 42.0379 10.4652 42.1003 10.6263 42.1647C12.6851 42.9883 14.4827 43.5355 16.6559 43.9517C17.2874 44.0726 17.9367 44.1877 18.5962 44.3047C20.5877 44.6578 22.6718 45.0274 24.6362 45.6221C27.272 46.42 29.7829 47.6452 31.73 49.8555C33.7219 52.1165 34.7503 54.3191 35.2033 56.6763C35.6521 59.0113 35.5292 61.4678 35.2742 64.2088C35.2408 64.5683 34.9223 64.8326 34.5628 64.7991C34.2034 64.7657 33.9391 64.4472 33.9725 64.0877C34.2265 61.3573 34.3305 59.0615 33.9195 56.9231C33.5127 54.8068 32.5947 52.8148 30.7491 50.7197C29.0217 48.7589 26.7638 47.6321 24.2574 46.8733C22.3741 46.3032 20.4011 45.9532 18.4292 45.6034C17.7548 45.4837 17.0805 45.3641 16.41 45.2357C14.1465 44.8023 12.2688 44.2298 10.1408 43.3786C10.029 43.3339 9.89255 43.2828 9.74074 43.226C9.35486 43.0815 8.86952 42.8999 8.43658 42.6906C7.84425 42.4044 7.13993 41.9759 6.80548 41.307C6.64403 40.9841 6.77491 40.5914 7.09782 40.43Z" fill="#FFDBEB"/>
<path d="M7.61438 92.3274C7.06464 90.4831 8.44621 88.6296 10.3707 88.6296H58.3057C60.1413 88.6296 61.5071 90.3257 61.1158 92.119L53.4905 127.064C53.2022 128.386 52.0326 129.327 50.6804 129.327H20.7868C19.5148 129.327 18.3938 128.492 18.0305 127.273L7.61438 92.3274Z" fill="url(#paint6_linear)"/>
<path d="M0 67.4004C0 65.8119 1.28772 64.5242 2.87619 64.5242H65.5133C67.1018 64.5242 68.3895 65.8119 68.3895 67.4004V89.9808C68.3895 91.5693 67.1018 92.857 65.5133 92.857H2.8762C1.28772 92.857 0 91.5693 0 89.9808V67.4004Z" fill="#B2EEFC"/>
<path d="M30.8425 6.13232C32.3192 4.89304 34.5347 4.99829 35.7911 6.3674C37.0476 7.73651 36.869 9.85103 35.3924 11.0903C33.9158 12.3296 31.7002 12.2243 30.4438 10.8552C29.1874 9.48612 29.3659 7.3716 30.8425 6.13232Z" fill="url(#paint7_linear)"/>
<mask id="mask0" mask-type="alpha" maskUnits="userSpaceOnUse" x="29" y="5" width="8" height="7">
<path d="M31.1971 6.44478C32.6518 5.22353 34.779 5.267 35.9485 6.54185C37.118 7.81671 36.8868 9.8402 35.4322 11.0614C33.9776 12.2827 31.8503 12.2392 30.6808 10.9644C29.5113 9.68951 29.7425 7.66602 31.1971 6.44478Z" fill="#C4C4C4"/>
</mask>
<g mask="url(#mask0)">
<path d="M29.6611 6.80755L29.6962 5.27056C29.7297 4.88811 30.0069 4.57146 30.4488 4.65166L37.8312 4.62151C38.0854 4.6376 38.2313 4.63943 38.3674 4.79364L34.8211 7.57158L30.3501 7.48301C29.9989 7.50563 29.6276 7.19 29.6611 6.80755Z" fill="url(#paint8_linear)"/>
<path d="M34.648 12.6557L36.2155 12.9391C36.6107 12.9862 36.9893 12.7898 36.999 12.3563L38.5517 5.39535C38.5877 5.15219 38.616 5.01407 38.4875 4.85386L34.9363 7.6287L34.1044 11.8665C34.009 12.1932 34.2529 12.6087 34.648 12.6557Z" fill="url(#paint9_linear)"/>
<path d="M26.9316 8.9555L26.9667 7.41851C27.0003 7.03606 27.2774 6.71941 27.7193 6.79961L35.1017 6.76946C35.3559 6.78554 35.5018 6.78737 35.6379 6.94159L32.0916 9.71952L27.6206 9.63096C27.2694 9.65358 26.8981 9.33795 26.9316 8.9555Z" fill="url(#paint10_linear)"/>
<path d="M31.918 14.8037L33.4855 15.0871C33.8807 15.1342 34.2593 14.9378 34.269 14.5042L35.8217 7.5433C35.8577 7.30014 35.886 7.16202 35.7575 7.00181L32.2063 9.77665L31.3744 14.0144C31.279 14.3411 31.5229 14.7566 31.918 14.8037Z" fill="url(#paint11_linear)"/>
<path d="M24.3061 11.0212L24.3412 9.48418C24.3748 9.10174 24.652 8.78509 25.0939 8.86528L32.4762 8.83513C32.7304 8.85122 32.8763 8.85305 33.0124 9.00726L29.4661 11.7852L24.9951 11.6966C24.644 11.7193 24.2726 11.4036 24.3061 11.0212Z" fill="url(#paint12_linear)"/>
<path d="M29.2926 16.8694L30.86 17.1528C31.2552 17.1998 31.6338 17.0035 31.6435 16.5699L33.1962 9.60897C33.2323 9.36582 33.2605 9.22769 33.132 9.06748L29.5808 11.8423L28.7489 16.0801C28.6536 16.4068 28.8974 16.8223 29.2926 16.8694Z" fill="url(#paint13_linear)"/>
</g>
<path d="M25.6443 40.6848C27.1209 39.4455 29.3365 39.5508 30.5929 40.9199C31.8493 42.289 31.6708 44.4035 30.1942 45.6428C28.7175 46.8821 26.502 46.7768 25.2456 45.4077C23.9892 44.0386 24.1677 41.9241 25.6443 40.6848Z" fill="url(#paint14_linear)"/>
<mask id="mask1" mask-type="alpha" maskUnits="userSpaceOnUse" x="24" y="40" width="8" height="7">
<path d="M25.9989 40.997C27.4535 39.7758 29.5808 39.8192 30.7503 41.0941C31.9198 42.3689 31.6886 44.3924 30.234 45.6137C28.7793 46.8349 26.652 46.7915 25.4826 45.5166C24.3131 44.2418 24.5442 42.2183 25.9989 40.997Z" fill="#C4C4C4"/>
</mask>
<g mask="url(#mask1)">
<path d="M24.4629 41.3598L24.498 39.8228C24.5315 39.4404 24.8087 39.1237 25.2506 39.2039L32.633 39.1738C32.8871 39.1898 33.0331 39.1917 33.1692 39.3459L29.6228 42.1238L25.1518 42.0353C24.8007 42.0579 24.4293 41.7422 24.4629 41.3598Z" fill="url(#paint15_linear)"/>
<path d="M29.4498 47.208L31.0173 47.4914C31.4124 47.5385 31.791 47.3421 31.8007 46.9085L33.3534 39.9476C33.3895 39.7044 33.4177 39.5663 33.2892 39.4061L29.7381 42.1809L28.9061 46.4187C28.8108 46.7454 29.0546 47.1609 29.4498 47.208Z" fill="url(#paint16_linear)"/>
<path d="M21.7334 43.5077L21.7685 41.9708C21.802 41.5883 22.0792 41.2717 22.5211 41.3519L29.9035 41.3217C30.1576 41.3378 30.3036 41.3396 30.4397 41.4938L26.8933 44.2718L22.4223 44.1832C22.0712 44.2058 21.6998 43.8902 21.7334 43.5077Z" fill="url(#paint17_linear)"/>
<path d="M26.7198 49.3552L28.2873 49.6386C28.6824 49.6857 29.061 49.4893 29.0707 49.0557L30.6234 42.0948C30.6595 41.8517 30.6877 41.7135 30.5593 41.5533L27.0081 44.3282L26.1762 48.5659C26.0808 48.8927 26.3246 49.3081 26.7198 49.3552Z" fill="url(#paint18_linear)"/>
<path d="M19.1079 45.5734L19.143 44.0364C19.1765 43.654 19.4537 43.3373 19.8956 43.4175L27.278 43.3874C27.5321 43.4035 27.6781 43.4053 27.8142 43.5595L24.2679 46.3374L19.7969 46.2489C19.4457 46.2715 19.0743 45.9559 19.1079 45.5734Z" fill="url(#paint19_linear)"/>
<path d="M24.0943 51.4216L25.6618 51.705C26.0569 51.7521 26.4355 51.5557 26.4452 51.1221L27.9979 44.1612C28.034 43.9181 28.0623 43.7799 27.9338 43.6197L24.3826 46.3946L23.5507 50.6323C23.4553 50.9591 23.6992 51.3745 24.0943 51.4216Z" fill="url(#paint20_linear)"/>
</g>
<path d="M48.8889 35.6426C50.3656 34.4033 52.5811 34.5085 53.8375 35.8777C55.094 37.2468 54.9154 39.3613 53.4388 40.6006C51.9622 41.8398 49.7466 41.7346 48.4902 40.3655C47.2338 38.9964 47.4123 36.8818 48.8889 35.6426Z" fill="url(#paint21_linear)"/>
<mask id="mask2" mask-type="alpha" maskUnits="userSpaceOnUse" x="47" y="35" width="8" height="7">
<path d="M49.2435 35.9549C50.6981 34.7337 52.8254 34.7772 53.9949 36.052C55.1644 37.3268 54.9332 39.3503 53.4786 40.5715C52.0239 41.7927 49.8967 41.7493 48.7272 40.4744C47.5577 39.1996 47.7889 37.1761 49.2435 35.9549Z" fill="#C4C4C4"/>
</mask>
<g mask="url(#mask2)">
<path d="M47.708 36.3181L47.7431 34.7811C47.7767 34.3986 48.0539 34.082 48.4958 34.1622L55.8781 34.132C56.1323 34.1481 56.2782 34.1499 56.4143 34.3041L52.868 37.0821L48.397 36.9935C48.0458 37.0161 47.6745 36.7005 47.708 36.3181Z" fill="url(#paint22_linear)"/>
<path d="M52.6945 42.1664L54.2621 42.4497C54.6572 42.4968 55.0359 42.3004 55.0456 41.8668L56.5987 34.9053C56.6347 34.6621 56.663 34.524 56.5345 34.3638L52.983 37.1389L52.1508 41.377C52.0555 41.7038 52.2993 42.1193 52.6945 42.1664Z" fill="url(#paint23_linear)"/>
<path d="M44.9785 38.4653L45.0136 36.9283C45.0472 36.5459 45.3244 36.2292 45.7663 36.3094L53.1486 36.2792C53.4028 36.2953 53.5487 36.2971 53.6849 36.4513L50.1385 39.2293L45.6675 39.1408C45.3163 39.1634 44.945 38.8477 44.9785 38.4653Z" fill="url(#paint24_linear)"/>
<path d="M49.965 44.3135L51.5326 44.5968C51.9278 44.6439 52.3064 44.4475 52.3161 44.0139L53.8692 37.0527C53.9053 36.8095 53.9335 36.6714 53.805 36.5112L50.2535 39.2862L49.4213 43.5242C49.326 43.8509 49.5698 44.2664 49.965 44.3135Z" fill="url(#paint25_linear)"/>
<path d="M42.3526 40.5319L42.3877 38.995C42.4212 38.6125 42.6984 38.2959 43.1403 38.3761L50.5227 38.3458C50.7768 38.3619 50.9227 38.3637 51.0589 38.518L47.5125 41.2959L43.0415 41.2074C42.6904 41.23 42.319 40.9144 42.3526 40.5319Z" fill="url(#paint26_linear)"/>
<path d="M47.339 46.3802L48.9066 46.6635C49.3018 46.7106 49.6804 46.5142 49.6901 46.0806L51.2432 39.1193C51.2793 38.8761 51.3075 38.738 51.179 38.5777L47.6275 41.3529L46.7954 45.5909C46.7 45.9176 46.9438 46.3331 47.339 46.3802Z" fill="url(#paint27_linear)"/>
</g>
<defs>
<linearGradient id="paint0_linear" x1="30.1299" y1="14.424" x2="26.8939" y2="20.7006" gradientUnits="userSpaceOnUse">
<stop stop-color="#6FC7A1"/>
<stop offset="1" stop-color="#DBFBDF"/>
</linearGradient>
<linearGradient id="paint1_linear" x1="47.6966" y1="16.7233" x2="58.8307" y2="24.1331" gradientUnits="userSpaceOnUse">
<stop stop-color="#6FC7A1"/>
<stop offset="1" stop-color="#DBFBDF"/>
</linearGradient>
<linearGradient id="paint2_linear" x1="70.039" y1="33.8067" x2="62.6095" y2="28.5364" gradientUnits="userSpaceOnUse">
<stop stop-color="#6FC7A1"/>
<stop offset="1" stop-color="#DBFBDF"/>
</linearGradient>
<linearGradient id="paint3_linear" x1="24.8602" y1="57.6893" x2="17.4308" y2="52.419" gradientUnits="userSpaceOnUse">
<stop stop-color="#6FC7A1"/>
<stop offset="1" stop-color="#DBFBDF"/>
</linearGradient>
<linearGradient id="paint4_linear" x1="13.9209" y1="40.468" x2="18.5224" y2="38.9106" gradientUnits="userSpaceOnUse">
<stop stop-color="#6FC7A1"/>
<stop offset="1" stop-color="#DBFBDF"/>
</linearGradient>
<linearGradient id="paint5_linear" x1="58.0264" y1="47.8738" x2="53.2494" y2="52.5783" gradientUnits="userSpaceOnUse">
<stop stop-color="#6FC7A1"/>
<stop offset="1" stop-color="#DBFBDF"/>
</linearGradient>
<linearGradient id="paint6_linear" x1="34.3379" y1="88.6296" x2="34.3379" y2="129.327" gradientUnits="userSpaceOnUse">
<stop stop-color="#00B8F0"/>
<stop offset="0.0001" stop-color="#00B8F0"/>
<stop offset="0.739583" stop-color="#B2EEFC"/>
</linearGradient>
<linearGradient id="paint7_linear" x1="30.4438" y1="10.8552" x2="35.5823" y2="6.13978" gradientUnits="userSpaceOnUse">
<stop stop-color="#1792C7"/>
<stop offset="1" stop-color="#00B8F0"/>
</linearGradient>
<linearGradient id="paint8_linear" x1="30.3775" y1="7.88691" x2="36.4034" y2="2.56837" gradientUnits="userSpaceOnUse">
<stop stop-color="#00B8F0"/>
<stop offset="0.0001" stop-color="#00B8F0"/>
<stop offset="0.739583" stop-color="#B2EEFC"/>
</linearGradient>
<linearGradient id="paint9_linear" x1="33.7" y1="11.7574" x2="39.983" y2="6.71866" gradientUnits="userSpaceOnUse">
<stop stop-color="#00B8F0"/>
<stop offset="0.0001" stop-color="#00B8F0"/>
<stop offset="0.739583" stop-color="#B2EEFC"/>
</linearGradient>
<linearGradient id="paint10_linear" x1="27.6481" y1="10.0349" x2="33.6739" y2="4.71633" gradientUnits="userSpaceOnUse">
<stop stop-color="#00B8F0"/>
<stop offset="0.0001" stop-color="#00B8F0"/>
<stop offset="0.739583" stop-color="#B2EEFC"/>
</linearGradient>
<linearGradient id="paint11_linear" x1="30.9701" y1="13.9053" x2="37.253" y2="8.86663" gradientUnits="userSpaceOnUse">
<stop stop-color="#00B8F0"/>
<stop offset="0.0001" stop-color="#00B8F0"/>
<stop offset="0.739583" stop-color="#B2EEFC"/>
</linearGradient>
<linearGradient id="paint12_linear" x1="25.0226" y1="12.1005" x2="31.0484" y2="6.78201" gradientUnits="userSpaceOnUse">
<stop stop-color="#00B8F0"/>
<stop offset="0.0001" stop-color="#00B8F0"/>
<stop offset="0.739583" stop-color="#B2EEFC"/>
</linearGradient>
<linearGradient id="paint13_linear" x1="28.3446" y1="15.971" x2="34.6275" y2="10.9323" gradientUnits="userSpaceOnUse">
<stop stop-color="#00B8F0"/>
<stop offset="0.0001" stop-color="#00B8F0"/>
<stop offset="0.739583" stop-color="#B2EEFC"/>
</linearGradient>
<linearGradient id="paint14_linear" x1="25.2456" y1="45.4077" x2="30.384" y2="40.6923" gradientUnits="userSpaceOnUse">
<stop stop-color="#1792C7"/>
<stop offset="1" stop-color="#00B8F0"/>
</linearGradient>
<linearGradient id="paint15_linear" x1="25.1793" y1="42.4392" x2="31.2051" y2="37.1206" gradientUnits="userSpaceOnUse">
<stop stop-color="#00B8F0"/>
<stop offset="0.0001" stop-color="#00B8F0"/>
<stop offset="0.739583" stop-color="#B2EEFC"/>
</linearGradient>
<linearGradient id="paint16_linear" x1="28.5018" y1="46.3096" x2="34.7847" y2="41.2709" gradientUnits="userSpaceOnUse">
<stop stop-color="#00B8F0"/>
<stop offset="0.0001" stop-color="#00B8F0"/>
<stop offset="0.739583" stop-color="#B2EEFC"/>
</linearGradient>
<linearGradient id="paint17_linear" x1="22.4498" y1="44.5871" x2="28.4756" y2="39.2686" gradientUnits="userSpaceOnUse">
<stop stop-color="#00B8F0"/>
<stop offset="0.0001" stop-color="#00B8F0"/>
<stop offset="0.739583" stop-color="#B2EEFC"/>
</linearGradient>
<linearGradient id="paint18_linear" x1="25.7718" y1="48.4568" x2="32.0548" y2="43.4181" gradientUnits="userSpaceOnUse">
<stop stop-color="#00B8F0"/>
<stop offset="0.0001" stop-color="#00B8F0"/>
<stop offset="0.739583" stop-color="#B2EEFC"/>
</linearGradient>
<linearGradient id="paint19_linear" x1="19.8243" y1="46.6528" x2="25.8501" y2="41.3343" gradientUnits="userSpaceOnUse">
<stop stop-color="#00B8F0"/>
<stop offset="0.0001" stop-color="#00B8F0"/>
<stop offset="0.739583" stop-color="#B2EEFC"/>
</linearGradient>
<linearGradient id="paint20_linear" x1="23.1463" y1="50.5232" x2="29.4293" y2="45.4845" gradientUnits="userSpaceOnUse">
<stop stop-color="#00B8F0"/>
<stop offset="0.0001" stop-color="#00B8F0"/>
<stop offset="0.739583" stop-color="#B2EEFC"/>
</linearGradient>
<linearGradient id="paint21_linear" x1="48.4902" y1="40.3655" x2="53.6286" y2="35.65" gradientUnits="userSpaceOnUse">
<stop stop-color="#1792C7"/>
<stop offset="1" stop-color="#00B8F0"/>
</linearGradient>
<linearGradient id="paint22_linear" x1="48.4244" y1="37.3974" x2="54.4503" y2="32.0789" gradientUnits="userSpaceOnUse">
<stop stop-color="#00B8F0"/>
<stop offset="0.0001" stop-color="#00B8F0"/>
<stop offset="0.739583" stop-color="#B2EEFC"/>
</linearGradient>
<linearGradient id="paint23_linear" x1="51.7465" y1="41.268" x2="58.0301" y2="36.2288" gradientUnits="userSpaceOnUse">
<stop stop-color="#00B8F0"/>
<stop offset="0.0001" stop-color="#00B8F0"/>
<stop offset="0.739583" stop-color="#B2EEFC"/>
</linearGradient>
<linearGradient id="paint24_linear" x1="45.6949" y1="39.5446" x2="51.7208" y2="34.2261" gradientUnits="userSpaceOnUse">
<stop stop-color="#00B8F0"/>
<stop offset="0.0001" stop-color="#00B8F0"/>
<stop offset="0.739583" stop-color="#B2EEFC"/>
</linearGradient>
<linearGradient id="paint25_linear" x1="49.017" y1="43.4151" x2="55.3004" y2="38.3758" gradientUnits="userSpaceOnUse">
<stop stop-color="#00B8F0"/>
<stop offset="0.0001" stop-color="#00B8F0"/>
<stop offset="0.739583" stop-color="#B2EEFC"/>
</linearGradient>
<linearGradient id="paint26_linear" x1="43.069" y1="41.6113" x2="49.0948" y2="36.2928" gradientUnits="userSpaceOnUse">
<stop stop-color="#00B8F0"/>
<stop offset="0.0001" stop-color="#00B8F0"/>
<stop offset="0.739583" stop-color="#B2EEFC"/>
</linearGradient>
<linearGradient id="paint27_linear" x1="46.391" y1="45.4818" x2="52.6746" y2="40.4426" gradientUnits="userSpaceOnUse">
<stop stop-color="#00B8F0"/>
<stop offset="0.0001" stop-color="#00B8F0"/>
<stop offset="0.739583" stop-color="#B2EEFC"/>
</linearGradient>
</defs>
</svg>
