<svg width="120" height="135" viewBox="0 0 120 135" fill="none" xmlns="http://www.w3.org/2000/svg">
<path d="M60.9064 26.6774C61.427 24.8923 63.889 24.7217 64.6508 26.418L72.3207 43.4958C72.8908 44.7651 72.0226 46.2142 70.6344 46.3104L57.7227 47.2048C56.3345 47.301 55.2749 45.9854 55.6645 44.6496L60.9064 26.6774Z" fill="url(#paint0_linear)"/>
<path fill-rule="evenodd" clip-rule="evenodd" d="M63.595 36.041C74.8451 36.041 84.0989 44.1281 85.2168 54.4933L91.0062 73.3075C95.474 73.8802 98.9178 77.5035 98.9178 81.8878C98.9178 86.6701 94.8204 90.5469 89.7659 90.5469C85.573 90.5469 82.0386 87.879 80.9556 84.2395L71.8417 80.8619L46.8409 121.748C45.7928 123.462 43.1551 122.734 43.1347 120.725L42.5355 61.7133C42.0944 60.0803 41.8599 58.369 41.8599 56.6059C41.8599 45.2482 51.591 36.041 63.595 36.041Z" fill="url(#paint1_linear)"/>
<path d="M96.9042 17.5205C98.8994 16.1202 101.189 18.8293 99.4758 20.5632L74.3993 45.9431C73.5732 46.7792 72.2078 46.7261 71.4491 45.8284L67.3219 40.9453C66.5633 40.0476 66.7385 38.6924 67.7005 38.0172L96.9042 17.5205Z" fill="url(#paint2_linear)"/>
<path d="M43.9754 27.7882C43.969 25.9931 46.1476 25.0992 47.4039 26.3814L63.4156 42.7225C64.4091 43.7364 64.0595 45.4337 62.7463 45.9725L46.8156 52.5094C45.5024 53.0482 44.0615 52.0857 44.0564 50.6662L43.9754 27.7882Z" fill="url(#paint3_linear)"/>
<ellipse cx="67.2596" cy="40.4483" rx="10.0125" ry="9.1063" fill="url(#paint4_linear)"/>
<ellipse cx="24.678" cy="111.65" rx="24.678" ry="23.3493" fill="url(#paint5_linear)"/>
<ellipse cx="31.586" cy="62.0788" rx="22.8609" ry="21.63" fill="url(#paint6_linear)"/>
<ellipse cx="35.8456" cy="85.1113" rx="13.5106" ry="12.7832" fill="url(#paint7_linear)"/>
<ellipse cx="68.4079" cy="58.6124" rx="2.52015" ry="2.67902" fill="#3E464F"/>
<ellipse cx="90.3361" cy="79.5927" rx="1.08175" ry="1.78458" fill="#3E464F"/>
<defs>
<linearGradient id="paint0_linear" x1="62.4265" y1="21.4654" x2="64.7626" y2="55.1883" gradientUnits="userSpaceOnUse">
<stop stop-color="#1792C7"/>
<stop offset="1" stop-color="#00B8F0"/>
</linearGradient>
<linearGradient id="paint1_linear" x1="70.3888" y1="36.041" x2="70.3888" y2="122.708" gradientUnits="userSpaceOnUse">
<stop stop-color="#00B8F0"/>
<stop offset="0.0001" stop-color="#00B8F0"/>
<stop offset="0.739583" stop-color="#B2EEFC"/>
</linearGradient>
<linearGradient id="paint2_linear" x1="115.101" y1="4.74892" x2="54.147" y2="56.2662" gradientUnits="userSpaceOnUse">
<stop stop-color="#FA9EC2"/>
<stop offset="1" stop-color="#FFDBEB"/>
</linearGradient>
<linearGradient id="paint3_linear" x1="43.9579" y1="22.8645" x2="58.3887" y2="58.0331" gradientUnits="userSpaceOnUse">
<stop stop-color="#00B8F0"/>
<stop offset="0.0001" stop-color="#00B8F0"/>
<stop offset="0.739583" stop-color="#B2EEFC"/>
</linearGradient>
<linearGradient id="paint4_linear" x1="67.2596" y1="31.342" x2="67.2596" y2="49.5546" gradientUnits="userSpaceOnUse">
<stop stop-color="#6FC7A1"/>
<stop offset="1" stop-color="#DBFBDF"/>
</linearGradient>
<linearGradient id="paint5_linear" x1="24.678" y1="88.301" x2="24.678" y2="135" gradientUnits="userSpaceOnUse">
<stop stop-color="#6FC7A1"/>
<stop offset="1" stop-color="#DBFBDF"/>
</linearGradient>
<linearGradient id="paint6_linear" x1="31.586" y1="40.4487" x2="31.586" y2="83.7088" gradientUnits="userSpaceOnUse">
<stop stop-color="#6FC7A1"/>
<stop offset="1" stop-color="#DBFBDF"/>
</linearGradient>
<linearGradient id="paint7_linear" x1="35.8456" y1="72.3281" x2="35.8456" y2="97.8944" gradientUnits="userSpaceOnUse">
<stop stop-color="#6FC7A1"/>
<stop offset="1" stop-color="#DBFBDF"/>
</linearGradient>
</defs>
</svg>
