<svg width="89" height="99" viewBox="0 0 89 99" fill="none" xmlns="http://www.w3.org/2000/svg">
<path d="M74.2768 64.147C73.649 63.5465 72.8185 63.2196 71.9604 63.2351C71.1023 63.2507 70.2836 63.6075 69.6767 64.2303C69.0698 64.8532 68.7222 65.6934 68.7071 66.5741C68.6919 67.4548 69.0104 68.3072 69.5955 68.9516C70.1096 69.4779 70.5175 70.1031 70.7958 70.7915C71.0741 71.4798 71.2174 72.2178 71.2174 72.963C71.2174 73.7083 71.0741 74.4462 70.7958 75.1345C70.5175 75.8229 70.1096 76.4481 69.5955 76.9744C69.0104 77.6188 68.6919 78.4712 68.7071 79.3519C68.7222 80.2326 69.0698 81.0729 69.6767 81.6957C70.2836 82.3186 71.1023 82.6753 71.9604 82.6909C72.8185 82.7064 73.649 82.3795 74.2768 81.779C76.5503 79.4383 77.8269 76.2681 77.8269 72.963C77.8269 69.658 76.5503 66.4877 74.2768 64.147Z" fill="url(#paint0_linear)"/>
<path d="M80.9894 56.8731C80.2903 56.2578 79.3656 55.9229 78.4101 55.9388C77.4547 55.9547 76.543 56.3202 75.8673 56.9584C75.1916 57.5966 74.8045 58.4575 74.7877 59.3599C74.7708 60.2623 75.1255 61.1356 75.777 61.7959C78.99 64.8423 80.794 68.967 80.794 73.2669C80.794 77.5668 78.99 81.6915 75.777 84.738C75.1255 85.3983 74.7708 86.2716 74.7877 87.174C74.8045 88.0763 75.1916 88.9373 75.8673 89.5755C76.543 90.2136 77.4547 90.5792 78.4101 90.5951C79.3656 90.611 80.2903 90.2761 80.9894 89.6608C85.5838 85.3082 88.1637 79.4129 88.1637 73.2669C88.1637 67.121 85.5838 61.2257 80.9894 56.8731Z" fill="url(#paint1_linear)"/>
<path d="M57.4091 13.3764H13.7298C6.14704 13.3764 0 19.5378 0 27.1382V78.0498C0 85.6502 6.14704 91.8116 13.7298 91.8116H57.4091C64.9918 91.8116 71.1389 85.6502 71.1389 78.0498V27.1382C71.1389 19.5378 64.9918 13.3764 57.4091 13.3764Z" fill="#333333"/>
<path d="M69.2025 64.138C68.496 64.7894 68.0991 65.6725 68.0991 66.5932C68.0991 67.514 68.496 68.397 69.2025 69.0485C69.7881 69.5864 70.2527 70.2254 70.5697 70.9289C70.8867 71.6324 71.0499 72.3866 71.0499 73.1483C71.0499 73.91 70.8867 74.6642 70.5697 75.3677C70.2527 76.0712 69.7881 76.7102 69.2025 77.2481C68.496 77.8996 68.0991 78.7827 68.0991 79.7034C68.0991 80.6241 68.496 81.5072 69.2025 82.1587C69.4587 82.3727 69.7466 82.5521 70.0577 82.6914C70.7733 81.0815 71.1406 79.3583 71.1392 77.6187V63.2346C70.4096 63.3491 69.7345 63.664 69.2025 64.138Z" fill="url(#paint2_linear)"/>
<path d="M49.4012 38.7964L44.8302 34.6179C43.7546 33.5036 41.8724 33.7822 41.0658 34.8965L28.1592 50.7748L20.6304 44.0892C19.5548 43.2535 17.6726 43.2535 16.8659 44.3678L12.8326 49.382C11.7571 50.4963 12.026 52.4462 13.1015 53.2819L27.0836 65.5389C27.6214 66.096 28.4281 66.3746 29.2347 66.096C30.0414 66.096 30.8481 65.8175 31.1169 64.9818L49.4012 42.6964C50.7457 41.5821 50.4768 39.6321 49.4012 38.7964Z" fill="url(#paint3_linear)"/>
<path d="M57.1402 38.7698L52.5691 34.5913C51.4936 33.477 49.6114 33.7556 48.8047 34.8699L35.8981 50.7482L28.3693 44.0626C27.2938 43.2269 25.4115 43.2269 24.6049 44.6197L20.5716 49.3554C19.7649 50.4696 19.7649 52.4196 20.8405 53.2553L34.8226 65.5123C35.3604 66.0694 36.167 66.348 36.9737 66.0694C37.7803 66.0694 38.587 65.7908 38.8559 64.9551L57.1402 42.6698C58.4846 41.5555 58.2157 39.8841 57.1402 38.7698Z" fill="url(#paint4_linear)"/>
<path d="M71.1392 27.969H74.9292C75.3098 27.969 75.6867 28.0485 76.0383 28.203C76.3899 28.3575 76.7094 28.5839 76.9786 28.8693C77.2477 29.1548 77.4612 29.4936 77.6068 29.8666C77.7525 30.2395 77.8274 30.6392 77.8274 31.0429V46.176C77.8274 46.9912 77.5221 47.7731 76.9786 48.3495C76.435 48.926 75.6978 49.2499 74.9292 49.2499H71.1392V27.969Z" fill="url(#paint5_linear)"/>
<path d="M53.0503 2.22942C53.0503 1.63814 52.8048 1.07108 52.3677 0.652983C51.9306 0.234885 51.3377 0 50.7196 0H20.3498C19.7316 0 19.1388 0.234885 18.7017 0.652983C18.2646 1.07108 18.019 1.63814 18.019 2.22942C18.017 5.20196 17.2908 8.13315 15.898 10.7904L14.5928 13.3765H56.5465L55.1713 10.7235C53.789 8.08648 53.0631 5.17935 53.0503 2.22942Z" fill="url(#paint6_linear)"/>
<path d="M22.4707 98.4999H48.6685C50.0303 98.4796 51.359 98.095 52.5041 97.3897C53.6492 96.6845 54.5651 95.6867 55.148 94.5092L56.5465 91.8116H14.5928L15.9679 94.4647C16.5459 95.6538 17.4625 96.663 18.6127 97.3767C19.7628 98.0905 21.0999 98.4797 22.4707 98.4999Z" fill="url(#paint7_linear)"/>
<path d="M72.9632 27.969H71.1392V49.2499H72.9632V27.969Z" fill="url(#paint8_linear)"/>
<defs>
<linearGradient id="paint0_linear" x1="193.382" y1="728.657" x2="268.351" y2="728.657" gradientUnits="userSpaceOnUse">
<stop stop-color="#87C5FC" stop-opacity="0.384001"/>
<stop offset="0.52" stop-color="#CCE2E6"/>
<stop offset="1" stop-color="#8FA1BB"/>
</linearGradient>
<linearGradient id="paint1_linear" x1="257.644" y1="1241.22" x2="367.6" y2="1241.22" gradientUnits="userSpaceOnUse">
<stop stop-color="#87C5FC" stop-opacity="0.384001"/>
<stop offset="0.52" stop-color="#CCE2E6"/>
<stop offset="1" stop-color="#8FA1BB"/>
</linearGradient>
<linearGradient id="paint2_linear" x1="109.658" y1="728.657" x2="134.647" y2="728.657" gradientUnits="userSpaceOnUse">
<stop stop-color="#87C5FC" stop-opacity="0.384001"/>
<stop offset="0.52" stop-color="#CCE2E6"/>
<stop offset="1" stop-color="#8FA1BB"/>
</linearGradient>
<linearGradient id="paint3_linear" x1="31.2297" y1="33.9086" x2="31.2297" y2="66.2053" gradientUnits="userSpaceOnUse">
<stop stop-color="#1792C7"/>
<stop offset="1" stop-color="#00B8F0"/>
</linearGradient>
<linearGradient id="paint4_linear" x1="39.0235" y1="33.882" x2="39.0235" y2="66.1787" gradientUnits="userSpaceOnUse">
<stop stop-color="#00B8F0"/>
<stop offset="0.0001" stop-color="#00B8F0"/>
<stop offset="0.739583" stop-color="#B2EEFC"/>
</linearGradient>
<linearGradient id="paint5_linear" x1="340.743" y1="442.946" x2="278.743" y2="442.946" gradientUnits="userSpaceOnUse">
<stop stop-color="white"/>
<stop offset="0.52" stop-color="#CCE2E6"/>
<stop offset="1" stop-color="#8FA1BB"/>
</linearGradient>
<linearGradient id="paint6_linear" x1="35.5696" y1="0" x2="35.5696" y2="13.3765" gradientUnits="userSpaceOnUse">
<stop stop-color="#00B8F0"/>
<stop offset="0.0001" stop-color="#00B8F0"/>
<stop offset="0.739583" stop-color="#B2EEFC"/>
</linearGradient>
<linearGradient id="paint7_linear" x1="35.5696" y1="91.8116" x2="35.5696" y2="98.4999" gradientUnits="userSpaceOnUse">
<stop stop-color="#00B8F0"/>
<stop offset="0.0001" stop-color="#00B8F0"/>
<stop offset="0.739583" stop-color="#B2EEFC"/>
</linearGradient>
<linearGradient id="paint8_linear" x1="156.105" y1="442.946" x2="126.555" y2="442.946" gradientUnits="userSpaceOnUse">
<stop stop-color="white"/>
<stop offset="0.52" stop-color="#CCE2E6"/>
<stop offset="1" stop-color="#8FA1BB"/>
</linearGradient>
</defs>
</svg>
