<svg width="97" height="16" viewBox="0 0 97 16" fill="none" xmlns="http://www.w3.org/2000/svg">
<g clip-path="url(#clip0)">
<path d="M11.6246 6.56253C11.6246 6.89153 11.5698 7.22053 11.5698 7.54953H3.61899C3.83833 8.75586 4.66083 9.41386 5.81232 9.41386C6.68966 9.41386 7.40249 9.03003 7.73149 8.42687H11.4053C10.6376 10.8395 8.49915 12.3749 5.81232 12.3749C2.4675 12.32 0 9.90736 0 6.61737C0 3.38221 2.4675 0.969543 5.81232 0.969543C9.21198 0.969543 11.6246 3.43704 11.6246 6.56253ZM3.67383 5.46587H8.00565C7.67665 4.42404 6.90899 3.82087 5.81232 3.82087C4.71566 3.82087 3.94799 4.42404 3.67383 5.46587Z" fill="#333333"/>
<path d="M35.861 6.56249C35.861 6.89149 35.8061 7.22049 35.8061 7.54949H27.8553C28.0747 8.75582 28.8972 9.41382 30.0486 9.41382C30.926 9.41382 31.6388 9.02999 31.9678 8.42682H35.6416C34.874 10.8395 32.7355 12.3748 30.0486 12.3748C26.7038 12.3748 24.2363 9.96215 24.2363 6.67216C24.2363 3.38216 26.7038 1.02433 30.0486 1.02433C33.5031 0.969501 35.861 3.437 35.861 6.56249ZM27.9102 5.46583H32.242C31.913 4.424 31.1453 3.82083 30.0486 3.82083C28.952 3.82083 28.2392 4.424 27.9102 5.46583Z" fill="#333333"/>
<path d="M43.9213 1.24371V4.58854H42.4957C41.1797 4.58854 40.6313 5.13687 40.6313 6.5077V11.9362H36.9575V1.29855H39.425L39.9734 2.50488C40.741 1.62755 41.6183 1.29855 42.9343 1.29855H43.9213V1.24371Z" fill="#333333"/>
<path d="M56.5331 1.29852L52.0916 11.4975C50.666 14.7327 49.35 15.939 46.6083 15.939H45.3472V12.7587H46.3342C47.7598 12.7587 48.1436 12.3748 48.6371 11.0588L44.2505 1.29852H48.2533L50.4466 7.16568L52.5303 1.29852H56.5331Z" fill="#333333"/>
<path d="M68.8707 6.67216C68.8707 10.017 66.5677 12.3748 63.2777 12.3748C62.2907 12.3748 61.4134 12.1007 60.7005 11.662V15.8841H57.0815V1.29851H59.6039L60.0425 2.121C60.9199 1.35334 62.0714 0.914673 63.3325 0.914673C66.5677 0.969506 68.8707 3.32734 68.8707 6.67216ZM65.1969 6.67216C65.1969 5.2465 64.2099 4.2595 62.7842 4.2595C61.3585 4.2595 60.3715 5.30133 60.3715 6.67216C60.3715 8.09783 61.3585 9.08483 62.7842 9.08483C64.155 9.08483 65.1969 8.04299 65.1969 6.67216Z" fill="#333333"/>
<path d="M81.9211 1.29851V11.9362H79.0698L78.7408 11.1685C77.8634 11.8813 76.7668 12.2652 75.5056 12.2652C72.2704 12.2652 69.9126 9.90732 69.9126 6.5625C69.9126 3.2725 72.2156 0.914673 75.5056 0.914673C76.7668 0.914673 77.8634 1.35334 78.7408 2.06617L79.1246 1.24367L81.9211 1.29851ZM78.4118 6.67216C78.4118 5.30133 77.4248 4.2595 75.9991 4.2595C74.6283 4.2595 73.5864 5.30133 73.5864 6.67216C73.5864 8.04299 74.5734 9.08483 75.9991 9.08483C77.4248 9.08483 78.4118 8.04299 78.4118 6.67216Z" fill="#333333"/>
<path d="M95.3549 1.29852L90.9134 11.4975C89.4878 14.7327 88.1718 15.939 85.4301 15.939H84.1689V12.7587H85.1559C86.5816 12.7587 86.9654 12.3748 87.4589 11.0588L83.0723 1.29852H87.0751L89.3232 7.16568L91.4069 1.29852H95.3549Z" fill="#333333"/>
</g>
<path d="M23.6612 2.67895L21.7488 0.994455C21.2988 0.545257 20.5113 0.657557 20.1738 1.10675L14.774 7.50783L11.6241 4.81264C11.1741 4.47574 10.3866 4.47574 10.0491 4.92494L8.36166 6.94633C7.91167 7.39553 8.02417 8.18162 8.47415 8.51852L14.324 13.4597C14.549 13.6843 14.8865 13.7966 15.224 13.6843C15.5833 13.5647 16.0407 13.0438 16.336 12.6833L23.6612 4.25114C24.2237 3.80194 24.1112 3.01585 23.6612 2.67895Z" fill="url(#paint0_linear)"/>
<path d="M26.899 2.70255L24.9866 1.01806C24.5366 0.568863 23.7491 0.681163 23.4116 1.13036L18.0118 7.53143L14.8619 4.83624C14.4119 4.49935 13.6244 4.49934 13.2869 5.06084L11.5995 6.96993C11.262 7.41913 11.262 8.20523 11.712 8.54213L17.5618 13.4833C17.7868 13.7079 18.1422 13.8142 18.4618 13.7079C18.7813 13.6016 19.0227 13.253 19.365 12.8599L26.899 4.27475C27.4615 3.82555 27.349 3.15175 26.899 2.70255Z" fill="url(#paint1_linear)"/>
<defs>
<linearGradient id="paint0_linear" x1="16.0586" y1="0.708496" x2="16.0586" y2="13.7284" gradientUnits="userSpaceOnUse">
<stop stop-color="#1792C7"/>
<stop offset="1" stop-color="#00B8F0"/>
</linearGradient>
<linearGradient id="paint1_linear" x1="19.3194" y1="0.732117" x2="19.3194" y2="13.7494" gradientUnits="userSpaceOnUse">
<stop stop-color="#00B8F0"/>
<stop offset="0.0001" stop-color="#00B8F0"/>
<stop offset="0.739583" stop-color="#B2EEFC"/>
</linearGradient>
<clipPath id="clip0">
<rect width="97" height="14.9695" fill="white" transform="translate(0 0.969543)"/>
</clipPath>
</defs>
</svg>
