<svg width="40" height="40" viewBox="0 0 40 40" fill="none" xmlns="http://www.w3.org/2000/svg">
<path d="M34.3014 18.2731L22.9256 3.92482C22.7087 3.65138 22.466 3.41334 22.2043 3.21073C21.4774 2.6478 20.6036 2.35854 19.7257 2.34295C19.7007 2.34251 19.6757 2.34229 19.6507 2.34229C18.4317 2.34228 17.2127 2.86982 16.3761 3.92493L5 18.2729L19.6507 33.3016L34.3014 18.2731Z" fill="url(#paint0_linear)"/>
<path d="M8.3457 6.41211H30.4331V33.874H8.3457V6.41211Z" fill="white"/>
<path d="M19.6507 30.7158L5 18.2729V34.3863C5 36.5711 6.77111 38.3422 8.9559 38.3422H30.3455C32.5303 38.3422 34.3014 36.5711 34.3014 34.3863V18.2729L19.6507 30.7158Z" fill="url(#paint1_linear)"/>
<path d="M24.0658 18.5803C23.9934 18.7619 23.8102 19.1417 23.409 19.3819C23.2727 19.4635 23.0447 19.5529 22.7556 19.5529C22.6002 19.5529 22.4798 19.4553 22.422 19.3971C22.2835 19.258 22.2014 19.0528 22.2024 18.8484L22.2104 17.2229C22.2116 17.1797 22.213 17.1365 22.213 17.093C22.213 17.0656 22.2119 17.0387 22.2114 17.0116L22.2295 13.3663L20.9223 13.3598L20.918 14.2248C20.4958 13.9237 19.9904 13.7547 19.4316 13.7547C17.9781 13.7547 16.4746 15.0096 16.4746 17.1099C16.4746 19.0245 17.7749 20.5821 19.3731 20.5821C20.048 20.5821 20.6603 20.3061 21.1426 19.84C21.2362 20.0157 21.3545 20.1779 21.4954 20.3193C21.8424 20.668 22.29 20.8601 22.7556 20.8601C24.0902 20.8601 24.935 19.932 25.2804 19.0635C25.812 17.7273 25.9074 16.6006 25.5897 15.4106C25.5879 15.4039 25.586 15.3971 25.584 15.3903C25.1036 13.7988 24.0291 12.4958 22.5581 11.7212C21.0873 10.9466 19.4044 10.7978 17.8192 11.3025C16.317 11.7806 15.0674 12.8115 14.3003 14.2051C13.533 15.5991 13.3313 17.2063 13.7321 18.7307C14.4241 21.3615 16.8032 23.2514 19.5178 23.3265L20.1711 23.3445L20.2072 22.0379L19.5539 22.0198C17.4157 21.9606 15.5416 20.4714 14.9963 18.3983C14.6811 17.1996 14.8406 15.9343 15.4454 14.8353C16.0502 13.7365 17.034 12.9242 18.2156 12.5481C19.4645 12.1506 20.7904 12.2675 21.9488 12.8776C22.7364 13.2924 23.2184 13.8211 23.4326 14.0807C23.9633 14.724 24.2107 15.3645 24.3286 15.7551C24.4211 16.0469 24.5374 16.5406 24.4873 17.154C24.4336 17.81 24.2139 18.3044 24.0658 18.5803ZM19.3732 19.275C18.6079 19.275 17.7819 18.4473 17.7819 17.11C17.7819 15.828 18.6207 15.0619 19.4317 15.0619C20.2865 15.0619 20.8861 15.8727 20.9042 17.0395L20.9033 17.2162C20.8583 18.3622 20.1894 19.275 19.3732 19.275Z" fill="url(#paint2_linear)"/>
<path d="M24.0664 18.5807C23.9938 18.7625 23.8104 19.1423 23.4089 19.3825C23.2723 19.4641 23.0445 19.5529 22.7556 19.5529C22.6005 19.5529 22.4795 19.4555 22.422 19.3971C22.2835 19.258 22.2014 19.0528 22.2024 18.8484L22.2295 13.3663L20.9223 13.3598L20.9179 14.2252C20.5519 13.9638 20.1223 13.8017 19.6508 13.7633V15.0801C20.3872 15.2064 20.8882 15.9742 20.9039 17.0391L20.9033 17.2162C20.8641 18.2288 20.3366 19.0599 19.6508 19.2386V20.5658C20.2155 20.5022 20.7278 20.2417 21.1426 19.84C21.2358 20.016 21.3542 20.1781 21.4954 20.3193C21.8424 20.668 22.29 20.8601 22.7556 20.8601C24.0907 20.8601 24.9354 19.9323 25.2804 19.0635C25.812 17.7275 25.9078 16.6009 25.5897 15.4106C25.588 15.4036 25.5862 15.3973 25.5836 15.3903C25.1034 13.7991 24.0289 12.4954 22.5579 11.7207C21.6464 11.2405 20.6521 11.0009 19.6508 11.0087V12.3159C20.4429 12.3089 21.2281 12.498 21.9488 12.8771C22.7452 13.296 23.2326 13.835 23.4501 14.1016C23.9688 14.7377 24.212 15.3682 24.3287 15.7546C24.4158 16.0813 24.514 16.61 24.4437 17.2555C24.3806 17.8355 24.2056 18.2894 24.0664 18.5807ZM19.6508 23.33L20.1711 23.3439L20.2077 22.0377L19.6508 22.022V23.33Z" fill="url(#paint3_linear)"/>
<defs>
<linearGradient id="paint0_linear" x1="19.6507" y1="2.34229" x2="19.6507" y2="33.3016" gradientUnits="userSpaceOnUse">
<stop stop-color="#00B8F0"/>
<stop offset="0.0001" stop-color="#00B8F0"/>
<stop offset="0.739583" stop-color="#B2EEFC"/>
</linearGradient>
<linearGradient id="paint1_linear" x1="19.6507" y1="18.2729" x2="19.6507" y2="38.3422" gradientUnits="userSpaceOnUse">
<stop stop-color="#1792C7"/>
<stop offset="1" stop-color="#00B8F0"/>
</linearGradient>
<linearGradient id="paint2_linear" x1="19.6513" y1="11.0085" x2="19.6513" y2="23.3445" gradientUnits="userSpaceOnUse">
<stop stop-color="#F86CA2"/>
<stop offset="1" stop-color="#FA9EC2"/>
</linearGradient>
<linearGradient id="paint3_linear" x1="19.6513" y1="11.0085" x2="19.6513" y2="23.3445" gradientUnits="userSpaceOnUse">
<stop stop-color="#F86CA2"/>
<stop offset="1" stop-color="#FA9EC2"/>
</linearGradient>
</defs>
</svg>
