<svg width="230" height="231" viewBox="0 0 230 231" fill="none" xmlns="http://www.w3.org/2000/svg">
<rect width="48.1751" height="24.3824" rx="3" transform="matrix(0.986282 0.164937 -0.14286 0.989735 172.988 99.2128)" fill="url(#paint0_linear)"/>
<ellipse rx="7.8297" ry="8.01791" transform="matrix(0.986271 0.165015 -0.142858 0.989736 194.427 114.949)" fill="white"/>
<rect width="98.1925" height="49.6974" rx="3" transform="matrix(0.986282 0.164938 -0.14286 0.989735 7.65137 73.3848)" fill="url(#paint1_linear)"/>
<ellipse rx="15.9589" ry="16.3424" transform="matrix(0.986271 0.165015 -0.142858 0.989736 51.3485 105.46)" fill="white"/>
<circle cx="135.268" cy="197.074" r="33.9262" fill="url(#paint2_linear)"/>
<circle cx="135.269" cy="197.074" r="27.2121" stroke="white" stroke-width="2"/>
<path d="M126.807 211.704V207.319H123.528V203.344H126.807V200.147H123.528V195.066H126.807V182.444H136.15C139.92 182.444 142.666 183.209 144.387 184.739C146.136 186.269 147.01 188.372 147.01 191.05C147.01 192.634 146.655 194.123 145.944 195.517C145.234 196.91 144.046 198.03 142.379 198.877C140.74 199.724 138.5 200.147 135.658 200.147H132.995V203.344H139.306V207.319H132.995V211.704H126.807ZM132.995 195.066H135.044C136.792 195.066 138.172 194.765 139.183 194.164C140.221 193.563 140.74 192.593 140.74 191.255C140.74 188.769 139.101 187.526 135.822 187.526H132.995V195.066Z" fill="white"/>
<circle cx="56.0041" cy="152.024" r="1.78341" fill="#FFDB5B"/>
<circle cx="180.153" cy="56.8071" r="1.78341" fill="#FFDB5B"/>
<circle cx="83.9799" cy="173.868" r="1.18894" fill="#FFDB5B"/>
<circle cx="114.084" cy="134.504" r="1.18894" fill="#FFDB5B"/>
<circle cx="208.051" cy="37.5083" r="21.0823" fill="#DDF2F9"/>
<path d="M208.051 27.2737C213.666 27.2737 218.676 28.5438 222.229 30.5213C225.832 32.5268 227.633 35.0585 227.633 37.5082C227.633 39.9579 225.832 42.4896 222.229 44.4951C218.676 46.4726 213.666 47.7427 208.051 47.7427C202.435 47.7427 197.425 46.4726 193.873 44.4951C190.27 42.4896 188.468 39.9579 188.468 37.5082C188.468 35.0585 190.27 32.5268 193.873 30.5213C197.425 28.5438 202.435 27.2737 208.051 27.2737Z" stroke="white" stroke-width="3"/>
<path d="M197.816 37.5082C197.816 43.1237 199.087 48.1334 201.064 51.6862C203.069 55.2892 205.601 57.0906 208.051 57.0906C210.501 57.0906 213.032 55.2892 215.038 51.6862C217.015 48.1334 218.285 43.1237 218.285 37.5082C218.285 31.8928 217.015 26.8831 215.038 23.3303C213.032 19.7273 210.501 17.9259 208.051 17.9259C205.601 17.9259 203.069 19.7273 201.064 23.3303C199.087 26.8831 197.816 31.8928 197.816 37.5082Z" stroke="white" stroke-width="3"/>
<circle cx="98.3227" cy="58.5905" r="58.3349" fill="url(#paint3_linear)"/>
<circle cx="98.3227" cy="58.5906" r="47.5097" stroke="white" stroke-width="2"/>
<path d="M83.7719 83.7462V76.2066H78.1348V69.3716H83.7719V63.8754H78.1348V55.1379H83.7719V33.4351H99.8376C106.32 33.4351 111.041 34.7504 114.001 37.381C117.007 40.0117 118.51 43.6288 118.51 48.2324C118.51 50.957 117.9 53.5172 116.678 55.913C115.457 58.3088 113.414 60.2348 110.548 61.691C107.73 63.1473 103.878 63.8754 98.992 63.8754H94.4119V69.3716H105.263V76.2066H94.4119V83.7462H83.7719ZM94.4119 55.1379H97.9351C100.942 55.1379 103.314 54.6212 105.052 53.5877C106.837 52.5542 107.73 50.8866 107.73 48.5848C107.73 44.31 104.911 42.1726 99.2739 42.1726H94.4119V55.1379Z" fill="white"/>
<defs>
<linearGradient id="paint0_linear" x1="24.0875" y1="0" x2="24.0875" y2="24.3824" gradientUnits="userSpaceOnUse">
<stop stop-color="#6FC7A1"/>
<stop offset="1" stop-color="#DBFBDF"/>
</linearGradient>
<linearGradient id="paint1_linear" x1="49.0963" y1="0" x2="49.0963" y2="49.6974" gradientUnits="userSpaceOnUse">
<stop stop-color="#6FC7A1"/>
<stop offset="1" stop-color="#DBFBDF"/>
</linearGradient>
<linearGradient id="paint2_linear" x1="135.268" y1="163.148" x2="135.268" y2="231" gradientUnits="userSpaceOnUse">
<stop stop-color="#FFD08A"/>
<stop offset="1" stop-color="#F2AA3D"/>
</linearGradient>
<linearGradient id="paint3_linear" x1="98.3227" y1="0.255615" x2="98.3227" y2="116.925" gradientUnits="userSpaceOnUse">
<stop stop-color="#FFD08A"/>
<stop offset="1" stop-color="#F2AA3D"/>
</linearGradient>
</defs>
</svg>
