<svg width="33" height="36" viewBox="0 0 33 36" fill="none" xmlns="http://www.w3.org/2000/svg">
<path d="M15.7788 25.8244C15.8206 25.8233 15.8625 25.8228 15.9046 25.8228C18.5832 25.8228 20.7545 27.9863 20.7545 30.6553C20.7545 31.6561 20.4491 32.5859 19.9262 33.3572C19.4183 34.1063 18.7051 34.7059 17.867 35.0759C17.267 35.3407 16.6031 35.4878 15.9046 35.4878C13.2259 35.4878 11.0547 33.3243 11.0547 30.6553C11.0547 28.0282 13.1583 25.8908 15.7788 25.8244Z" fill="url(#paint0_linear)"/>
<path d="M15.9064 2.12018e-07C17.2488 -0.000515624 18.4499 0.940283 18.7246 2.30225C19.0374 3.85413 18.0287 5.36503 16.4712 5.67685C16.3917 5.69278 16.3123 5.70526 16.2331 5.71441C14.7618 5.88463 13.3814 4.90428 13.0843 3.43132C12.7712 1.87944 13.7803 0.368549 15.3377 0.0567229C15.5286 0.0185043 15.7189 6.92686e-05 15.9064 2.12018e-07Z" fill="url(#paint1_linear)"/>
<path d="M29.6423 24.1364L30.3939 24.7607C31.1786 25.4126 31.6736 26.339 31.7851 27.3398C31.801 27.4828 31.8091 27.6273 31.8091 27.7727C31.8091 27.7727 31.8091 27.7728 31.8091 27.7727L31.8092 27.8121C31.8092 27.8287 31.809 27.8454 31.8088 27.862C31.8084 27.8939 31.8076 27.9257 31.8064 27.9575C31.7297 30.0319 30.0177 31.6902 27.9168 31.6902H3.89235C1.74257 31.6902 0 29.9539 0 27.8121C0 26.6263 0.53863 25.5041 1.46488 24.7597L2.23666 24.1392C4.02187 22.7046 5.05996 20.542 5.05996 18.2568V14.1809C5.05996 8.78464 8.99933 4.30537 14.169 3.44262C14.7603 3.34365 15.3677 3.29199 15.9873 3.29199C21.8336 3.29199 26.6078 7.86715 26.9005 13.6201C26.9052 13.7129 26.9088 13.806 26.9111 13.8994C26.9135 13.9929 26.9147 14.0868 26.9147 14.1809V18.3321C26.9147 18.3494 26.9148 18.3668 26.9149 18.3841C26.9158 18.5066 26.9196 18.6288 26.9264 18.7505C27.0425 20.837 28.022 22.79 29.6423 24.1364Z" fill="url(#paint2_linear)"/>
<path d="M32.6414 8.1488C32.6414 4.52076 29.7003 1.57959 26.0723 1.57959C22.4442 1.57959 19.5029 4.52076 19.5029 8.1488C19.5029 11.7768 22.4442 14.718 26.0723 14.718C29.7003 14.718 32.6414 11.7768 32.6414 8.1488Z" fill="url(#paint3_linear)"/>
<path d="M26.1972 11.135C25.9363 11.135 25.7249 10.9351 25.7249 10.6885V6.38178L25.5487 6.53391C25.356 6.70007 25.0573 6.68712 24.8816 6.50478C24.7059 6.32265 24.7196 6.04018 24.9123 5.87402L25.8789 5.04065C26.0172 4.92153 26.2166 4.89067 26.3879 4.9621C26.5591 5.03353 26.6693 5.19364 26.6693 5.37059V10.6885C26.6693 10.9351 26.4579 11.135 26.1972 11.135Z" fill="white"/>
<defs>
<linearGradient id="paint0_linear" x1="15.9046" y1="25.8228" x2="15.9046" y2="35.4878" gradientUnits="userSpaceOnUse">
<stop stop-color="#1792C7"/>
<stop offset="1" stop-color="#00B8F0"/>
</linearGradient>
<linearGradient id="paint1_linear" x1="15.9044" y1="0" x2="15.9044" y2="5.73358" gradientUnits="userSpaceOnUse">
<stop stop-color="#1792C7"/>
<stop offset="1" stop-color="#00B8F0"/>
</linearGradient>
<linearGradient id="paint2_linear" x1="15.9046" y1="3.29199" x2="15.9046" y2="31.6902" gradientUnits="userSpaceOnUse">
<stop stop-color="#00B8F0"/>
<stop offset="0.0001" stop-color="#00B8F0"/>
<stop offset="0.739583" stop-color="#B2EEFC"/>
</linearGradient>
<linearGradient id="paint3_linear" x1="26.0721" y1="1.57959" x2="26.0721" y2="14.718" gradientUnits="userSpaceOnUse">
<stop stop-color="#F86CA2"/>
<stop offset="1" stop-color="#FA9EC2"/>
</linearGradient>
</defs>
</svg>
