<svg width="172" height="176" viewBox="0 0 172 176" fill="none" xmlns="http://www.w3.org/2000/svg">
<path d="M52.7325 166.704V143.805H35.6235V123.045H52.7325V106.353H35.6235V79.8153H52.7325V13.8999H101.493C121.168 13.8999 135.497 17.8948 144.479 25.8845C153.604 33.8742 158.166 44.8601 158.166 58.8422C158.166 67.1173 156.313 74.893 152.606 82.1694C148.899 89.4457 142.697 95.2954 134 99.7183C125.445 104.141 113.754 106.353 98.9267 106.353H85.0256V123.045H117.96V143.805H85.0256V166.704H52.7325ZM85.0256 79.8153H95.7187C104.844 79.8153 112.044 78.2458 117.319 75.107C122.737 71.9682 125.446 66.9033 125.446 59.9122C125.446 46.9289 116.891 40.4373 99.7821 40.4373H85.0256V79.8153Z" fill="url(#paint0_linear)"/>
<path fill-rule="evenodd" clip-rule="evenodd" d="M139.896 161.434C140.351 161.434 140.719 161.802 140.719 162.257V172.554C140.719 173.009 140.351 173.378 139.896 173.378H127.797L126.687 175.325C126.608 175.463 126.41 175.464 126.33 175.327L125.199 173.378H122.514C122.059 173.378 121.69 173.009 121.69 172.554V162.257C121.69 161.802 122.059 161.434 122.514 161.434H139.896Z" fill="url(#paint1_linear)"/>
<line x1="0.411778" y1="-0.411778" x2="8.7926" y2="-0.411778" transform="matrix(0.999448 -0.0332252 0.0291549 0.999575 106.994 168.65)" stroke="#FEF97A" stroke-width="0.823556" stroke-linecap="round" stroke-linejoin="round"/>
<line x1="0.411778" y1="-0.411778" x2="4.21769" y2="-0.411778" transform="matrix(0.997392 -0.0721745 0.0633621 0.997991 110.801 171.51)" stroke="#FEF97A" stroke-width="0.823556" stroke-linecap="round" stroke-linejoin="round"/>
<line x1="0.411778" y1="-0.411778" x2="4.21769" y2="-0.411778" transform="matrix(0.997392 -0.0721745 0.0633621 0.997991 111.353 165.449)" stroke="#FEF97A" stroke-width="0.823556" stroke-linecap="round" stroke-linejoin="round"/>
<path d="M138.711 110.636C138.597 110.429 138.385 110.31 138.132 110.31H135.018C134.647 110.31 134.261 110.567 134.1 110.922L130.798 118.195C130.69 118.432 130.697 118.684 130.814 118.884C130.932 119.085 131.141 119.202 131.389 119.208L133.833 119.241L132.064 123.93C132.02 124.047 131.929 124.292 132.092 124.544C132.163 124.655 132.285 124.722 132.411 124.722H132.44C132.678 124.722 132.822 124.53 132.891 124.438L138.607 116.826C138.851 116.501 138.75 116.21 138.713 116.126C138.675 116.045 138.521 115.779 138.132 115.779H136.313L138.693 111.331C138.818 111.097 138.825 110.843 138.711 110.636Z" fill="#FEF97A"/>
<path fill-rule="evenodd" clip-rule="evenodd" d="M17.6467 36.3474C18.1015 36.3474 18.4702 36.7161 18.4702 37.171V41.327C18.4702 41.7819 18.1015 42.1506 17.6467 42.1506H11.5274L11.0084 42.9743C10.9281 43.1018 10.7424 43.1025 10.661 42.9757L10.1314 42.1506H9.07005C8.61521 42.1506 8.24649 41.7819 8.24649 41.327V37.171C8.24649 36.7161 8.61521 36.3474 9.07005 36.3474H17.6467Z" fill="url(#paint2_linear)"/>
<line x1="0.205889" y1="-0.205889" x2="4.7389" y2="-0.205889" transform="matrix(0.999549 -0.0300286 0.0322586 0.99948 0.350586 39.8538)" stroke="#FEF97A" stroke-width="0.411778" stroke-linecap="round" stroke-linejoin="round"/>
<line x1="0.205889" y1="-0.205889" x2="2.2805" y2="-0.205889" transform="matrix(0.997865 -0.0653065 0.0700276 0.997545 2.396 41.2429)" stroke="#FEF97A" stroke-width="0.411778" stroke-linecap="round" stroke-linejoin="round"/>
<line x1="0.205889" y1="-0.205889" x2="2.2805" y2="-0.205889" transform="matrix(0.997868 -0.065266 0.070071 0.997542 2.69238 38.2983)" stroke="#FEF97A" stroke-width="0.411778" stroke-linecap="round" stroke-linejoin="round"/>
<path d="M39.5776 0.586325C39.4634 0.39864 39.2519 0.291504 38.9984 0.291504H35.885C35.5134 0.291504 35.1272 0.524123 34.9668 0.844977L31.665 7.42219C31.5571 7.63672 31.5638 7.86427 31.681 8.04476C31.7991 8.22686 32.0081 8.33292 32.2559 8.33798L34.6993 8.36748L32.9305 12.6083C32.887 12.7141 32.7955 12.9358 32.9585 13.1636C33.0297 13.2636 33.1519 13.3247 33.2777 13.3247H33.3063C33.5449 13.3247 33.6888 13.1511 33.7578 13.0674L39.4734 6.18368C39.7173 5.89046 39.6167 5.6273 39.5798 5.55074C39.5416 5.47738 39.388 5.23705 38.9986 5.23705H37.1799L39.5598 1.21502C39.6846 1.00287 39.6915 0.773193 39.5776 0.586325Z" fill="#FEF97A"/>
<g clip-path="url(#clip0)">
<path d="M21.2255 69.5612C21.1459 69.4378 20.9985 69.3674 20.8218 69.3674H18.6519C18.3928 69.3674 18.1237 69.5203 18.0119 69.7311L15.7106 74.0533C15.6355 74.1943 15.6401 74.3438 15.7218 74.4624C15.8041 74.5821 15.9497 74.6518 16.1224 74.6551L17.8255 74.6745L16.5926 77.4613C16.5623 77.5309 16.4985 77.6765 16.6121 77.8263C16.6618 77.8919 16.747 77.9321 16.8347 77.9321H16.8546C17.0209 77.9321 17.1211 77.8181 17.1692 77.763L21.1528 73.2394C21.3228 73.0467 21.2527 72.8738 21.227 72.8235C21.2004 72.7753 21.0933 72.6174 20.8219 72.6174H19.5543L21.2131 69.9743C21.3 69.8349 21.3049 69.684 21.2255 69.5612Z" fill="#FEF97A"/>
</g>
<path fill-rule="evenodd" clip-rule="evenodd" d="M158.117 140.296C157.207 140.296 156.47 141.033 156.47 141.943V147.256C156.47 148.165 157.207 148.903 158.117 148.903H166.766L167.447 149.983C167.608 150.238 167.979 150.239 168.142 149.985L168.837 148.903H169.986C170.895 148.903 171.633 148.165 171.633 147.256V141.943C171.633 141.033 170.895 140.296 169.986 140.296H158.117Z" fill="url(#paint3_linear)"/>
<line x1="0.205889" y1="-0.205889" x2="9.67744" y2="-0.205889" transform="matrix(0.999548 -0.0300476 0.0322382 0.99948 142.466 145.524)" stroke="#FEF97A" stroke-width="0.411778" stroke-linecap="round" stroke-linejoin="round"/>
<line x1="0.205889" y1="-0.205889" x2="4.7632" y2="-0.205889" transform="matrix(0.997865 -0.0653071 0.070027 0.997545 146.555 148.301)" stroke="#FEF97A" stroke-width="0.411778" stroke-linecap="round" stroke-linejoin="round"/>
<line x1="0.205889" y1="-0.205889" x2="4.7632" y2="-0.205889" transform="matrix(0.997865 -0.0653071 0.070027 0.997545 147.147 142.416)" stroke="#FEF97A" stroke-width="0.411778" stroke-linecap="round" stroke-linejoin="round"/>
<defs>
<linearGradient id="paint0_linear" x1="96.895" y1="13.8999" x2="96.895" y2="166.704" gradientUnits="userSpaceOnUse">
<stop stop-color="#00B8F0"/>
<stop offset="0.0001" stop-color="#00B8F0"/>
<stop offset="0.739583" stop-color="#B2EEFC"/>
</linearGradient>
<linearGradient id="paint1_linear" x1="131.205" y1="161.434" x2="131.205" y2="175.429" gradientUnits="userSpaceOnUse">
<stop stop-color="#00B8F0"/>
<stop offset="0.0001" stop-color="#00B8F0"/>
<stop offset="0.739583" stop-color="#B2EEFC"/>
</linearGradient>
<linearGradient id="paint2_linear" x1="13.3584" y1="36.3474" x2="13.3584" y2="43.0704" gradientUnits="userSpaceOnUse">
<stop stop-color="#00B8F0"/>
<stop offset="0.0001" stop-color="#00B8F0"/>
<stop offset="0.739583" stop-color="#B2EEFC"/>
</linearGradient>
<linearGradient id="paint3_linear" x1="164.051" y1="140.296" x2="164.051" y2="150.175" gradientUnits="userSpaceOnUse">
<stop stop-color="#6FC7A1"/>
<stop offset="1" stop-color="#DBFBDF"/>
</linearGradient>
<clipPath id="clip0">
<rect width="9.47089" height="8.5647" fill="white" transform="translate(13.7344 69.3677)"/>
</clipPath>
</defs>
</svg>
