<svg width="232" height="238" viewBox="0 0 232 238" fill="none" xmlns="http://www.w3.org/2000/svg">
<path d="M70.9603 225.596V194.595H47.7974V166.49H70.9603V143.89H47.7974V107.963H70.9603V18.7236H136.974C163.612 18.7236 183.011 24.1321 195.171 34.9489C207.525 45.7658 213.702 60.639 213.702 79.5686C213.702 90.7718 211.192 101.299 206.174 111.15C201.155 121.001 192.758 128.921 180.984 134.909C169.402 140.896 153.575 143.89 133.5 143.89H114.68V166.49H159.269V194.595H114.68V225.596H70.9603ZM114.68 107.963H129.157C141.511 107.963 151.258 105.838 158.4 101.589C165.735 97.3392 169.402 90.482 169.402 81.0173C169.402 63.4398 157.821 54.6511 134.658 54.6511H114.68V107.963Z" fill="url(#paint0_linear)"/>
<path fill-rule="evenodd" clip-rule="evenodd" d="M188.965 218.462C189.581 218.462 190.08 218.961 190.08 219.577V233.517C190.08 234.133 189.581 234.632 188.965 234.632H172.585L171.083 237.269C170.976 237.456 170.707 237.457 170.599 237.271L169.067 234.632H165.433C164.817 234.632 164.318 234.133 164.318 233.517V219.577C164.318 218.961 164.817 218.462 165.433 218.462H188.965Z" fill="url(#paint1_linear)"/>
<line x1="0.557484" y1="-0.557484" x2="11.9038" y2="-0.557484" transform="matrix(0.999448 -0.0332252 0.0291549 0.999575 144.422 228.232)" stroke="#FEF97A" stroke-width="1.11497" stroke-linecap="round" stroke-linejoin="round"/>
<line x1="0.557484" y1="-0.557484" x2="5.7101" y2="-0.557484" transform="matrix(0.997392 -0.0721745 0.0633621 0.997991 149.576 232.103)" stroke="#FEF97A" stroke-width="1.11497" stroke-linecap="round" stroke-linejoin="round"/>
<line x1="0.557484" y1="-0.557484" x2="5.7101" y2="-0.557484" transform="matrix(0.997392 -0.0721745 0.0633621 0.997991 150.323 223.898)" stroke="#FEF97A" stroke-width="1.11497" stroke-linecap="round" stroke-linejoin="round"/>
<path d="M187.362 149.689C187.207 149.408 186.921 149.248 186.577 149.248H182.362C181.859 149.248 181.336 149.596 181.119 150.076L176.649 159.923C176.503 160.244 176.512 160.585 176.671 160.855C176.831 161.128 177.114 161.286 177.449 161.294L180.757 161.338L178.362 167.687C178.303 167.845 178.18 168.177 178.4 168.518C178.497 168.668 178.662 168.759 178.833 168.759H178.871C179.194 168.759 179.389 168.5 179.482 168.374L187.221 158.069C187.551 157.63 187.414 157.236 187.365 157.121C187.313 157.011 187.105 156.651 186.578 156.651H184.115L187.338 150.63C187.506 150.313 187.516 149.969 187.362 149.689Z" fill="#FEF97A"/>
<path fill-rule="evenodd" clip-rule="evenodd" d="M23.4593 49.1138C24.075 49.1138 24.5742 49.613 24.5742 50.2287V55.8554C24.5742 56.4712 24.075 56.9704 23.4593 56.9704H15.1751L14.4721 58.0861C14.3633 58.2587 14.112 58.2597 14.0017 58.0879L13.2844 56.9704H11.8478C11.2321 56.9704 10.7329 56.4712 10.7329 55.8554V50.2287C10.7329 49.613 11.2321 49.1138 11.8478 49.1138H23.4593Z" fill="url(#paint2_linear)"/>
<line x1="0.278742" y1="-0.278742" x2="6.41574" y2="-0.278742" transform="matrix(0.999549 -0.0300287 0.0322586 0.99948 0.0432129 53.8608)" stroke="#FEF97A" stroke-width="0.557484" stroke-linecap="round" stroke-linejoin="round"/>
<line x1="0.278742" y1="-0.278742" x2="3.08745" y2="-0.278742" transform="matrix(0.997865 -0.0653065 0.0700276 0.997545 2.81274 55.7417)" stroke="#FEF97A" stroke-width="0.557484" stroke-linecap="round" stroke-linejoin="round"/>
<line x1="0.278742" y1="-0.278742" x2="3.08745" y2="-0.278742" transform="matrix(0.997868 -0.0652661 0.0700709 0.997542 3.21387 51.7549)" stroke="#FEF97A" stroke-width="0.557484" stroke-linecap="round" stroke-linejoin="round"/>
<path d="M53.1506 0.698947C52.996 0.444851 52.7097 0.299805 52.3664 0.299805H48.1515C47.6483 0.299805 47.1255 0.614736 46.9083 1.04912L42.4381 9.95366C42.2922 10.2441 42.3012 10.5522 42.4599 10.7965C42.6197 11.0431 42.9027 11.1866 43.2381 11.1935L46.5462 11.2334L44.1515 16.9748C44.0926 17.1181 43.9687 17.4182 44.1894 17.7267C44.2858 17.862 44.4513 17.9448 44.6216 17.9448H44.6603C44.9833 17.9448 45.1781 17.7098 45.2715 17.5964L53.0096 8.2769C53.3398 7.87993 53.2035 7.52365 53.1536 7.42C53.1019 7.32069 52.894 6.99531 52.3668 6.99531H49.9045L53.1266 1.5501C53.2955 1.26288 53.3049 0.951937 53.1506 0.698947Z" fill="#FEF97A"/>
<g clip-path="url(#clip0)">
<path d="M28.3054 94.0807C28.1976 93.9137 27.9981 93.8184 27.7588 93.8184H24.8211C24.4704 93.8184 24.1061 94.0253 23.9547 94.3108L20.8391 100.162C20.7374 100.353 20.7436 100.556 20.8543 100.716C20.9657 100.878 21.1629 100.973 21.3967 100.977L23.7023 101.003L22.0332 104.776C21.9922 104.87 21.9059 105.068 22.0596 105.27C22.1269 105.359 22.2422 105.414 22.3609 105.414H22.3878C22.613 105.414 22.7487 105.259 22.8139 105.185L28.2071 99.0605C28.4372 98.7996 28.3423 98.5655 28.3075 98.4973C28.2714 98.4321 28.1265 98.2183 27.7591 98.2183H26.0429L28.2886 94.64C28.4064 94.4512 28.4129 94.2469 28.3054 94.0807Z" fill="#FEF97A"/>
</g>
<path fill-rule="evenodd" clip-rule="evenodd" d="M213.634 189.844C212.403 189.844 211.405 190.843 211.405 192.074V199.266C211.405 200.498 212.403 201.496 213.634 201.496H225.345L226.266 202.959C226.484 203.304 226.986 203.306 227.207 202.963L228.148 201.496H229.703C230.934 201.496 231.933 200.498 231.933 199.266V192.074C231.933 190.843 230.934 189.844 229.703 189.844H213.634Z" fill="url(#paint3_linear)"/>
<line x1="0.278742" y1="-0.278742" x2="13.1018" y2="-0.278742" transform="matrix(0.999548 -0.0300476 0.0322382 0.99948 192.446 196.923)" stroke="#FEF97A" stroke-width="0.557484" stroke-linecap="round" stroke-linejoin="round"/>
<line x1="0.278742" y1="-0.278742" x2="6.44864" y2="-0.278742" transform="matrix(0.997865 -0.0653069 0.0700271 0.997545 197.981 200.682)" stroke="#FEF97A" stroke-width="0.557484" stroke-linecap="round" stroke-linejoin="round"/>
<line x1="0.278742" y1="-0.278742" x2="6.44864" y2="-0.278742" transform="matrix(0.997865 -0.0653069 0.0700271 0.997545 198.784 192.714)" stroke="#FEF97A" stroke-width="0.557484" stroke-linecap="round" stroke-linejoin="round"/>
<defs>
<linearGradient id="paint0_linear" x1="130.749" y1="18.7236" x2="130.749" y2="225.596" gradientUnits="userSpaceOnUse">
<stop stop-color="#00B8F0"/>
<stop offset="0.0001" stop-color="#00B8F0"/>
<stop offset="0.739583" stop-color="#B2EEFC"/>
</linearGradient>
<linearGradient id="paint1_linear" x1="177.199" y1="218.462" x2="177.199" y2="237.41" gradientUnits="userSpaceOnUse">
<stop stop-color="#00B8F0"/>
<stop offset="0.0001" stop-color="#00B8F0"/>
<stop offset="0.739583" stop-color="#B2EEFC"/>
</linearGradient>
<linearGradient id="paint2_linear" x1="17.6535" y1="49.1138" x2="17.6535" y2="58.2162" gradientUnits="userSpaceOnUse">
<stop stop-color="#00B8F0"/>
<stop offset="0.0001" stop-color="#00B8F0"/>
<stop offset="0.739583" stop-color="#B2EEFC"/>
</linearGradient>
<linearGradient id="paint3_linear" x1="221.669" y1="189.844" x2="221.669" y2="203.219" gradientUnits="userSpaceOnUse">
<stop stop-color="#6FC7A1"/>
<stop offset="1" stop-color="#DBFBDF"/>
</linearGradient>
<clipPath id="clip0">
<rect width="12.8221" height="11.5953" fill="white" transform="translate(18.1631 93.8184)"/>
</clipPath>
</defs>
</svg>
