<svg width="48" height="33" viewBox="0 0 48 33" fill="none" xmlns="http://www.w3.org/2000/svg">
<path d="M38.7368 4.83779L34.0414 0.702078C32.9366 -0.400779 31.0032 -0.125064 30.1746 0.977792L16.9171 16.6935L9.18353 10.0764C8.07874 9.24922 6.14535 9.24922 5.31675 10.3521L1.17377 15.3149C0.0689758 16.4178 0.345175 18.3478 1.44997 19.1749L15.8123 31.3063C16.3647 31.8578 17.1933 32.1335 18.0219 31.8578C18.904 31.5643 20.0272 30.2852 20.7522 29.4001L38.7368 8.69779C40.1178 7.59493 39.8416 5.66493 38.7368 4.83779Z" fill="url(#paint0_linear)"/>
<path d="M46.6864 4.89561L41.991 0.759903C40.8862 -0.342953 38.9528 -0.0672394 38.1242 1.03562L24.8667 16.7513L17.1331 10.1342C16.0283 9.30704 14.0949 9.30704 13.2663 10.6856L9.12335 15.3727C8.29475 16.4756 8.29475 18.4056 9.39955 19.2327L23.7619 31.3642C24.3143 31.9156 25.1869 32.1767 25.9715 31.9156C26.7561 31.6545 27.3486 30.7987 28.1891 29.8337L46.6864 8.75561C48.0674 7.65275 47.7912 5.99847 46.6864 4.89561Z" fill="url(#paint1_linear)"/>
<defs>
<linearGradient id="paint0_linear" x1="20.0711" y1="0" x2="20.0711" y2="31.9659" gradientUnits="userSpaceOnUse">
<stop stop-color="#1792C7"/>
<stop offset="1" stop-color="#00B8F0"/>
</linearGradient>
<linearGradient id="paint1_linear" x1="28.0771" y1="0.0578613" x2="28.0771" y2="32.0175" gradientUnits="userSpaceOnUse">
<stop stop-color="#00B8F0"/>
<stop offset="0.0001" stop-color="#00B8F0"/>
<stop offset="0.739583" stop-color="#B2EEFC"/>
</linearGradient>
</defs>
</svg>
